<?xml version="1.0" standalone="no"?>
<!DOCTYPE svg PUBLIC "-//W3C//DTD SVG 1.1//EN" "http://www.w3.org/Graphics/SVG/1.1/DTD/svg11.dtd" >
<!--
2013-9-30: Created.
-->
<svg>
<metadata>
Created by iconfont
</metadata>
<defs>

<font id="iconfont" horiz-adv-x="1024" >
  <font-face
    font-family="iconfont"
    font-weight="500"
    font-stretch="normal"
    units-per-em="1024"
    ascent="896"
    descent="-128"
  />
    <missing-glyph />
    
    <glyph glyph-name="x" unicode="x" horiz-adv-x="1001"
d="M281 543q-27 -1 -53 -1h-83q-18 0 -36.5 -6t-32.5 -18.5t-23 -32t-9 -45.5v-76h912v41q0 16 -0.5 30t-0.5 18q0 13 -5 29t-17 29.5t-31.5 22.5t-49.5 9h-133v-97h-438v97zM955 310v-52q0 -23 0.5 -52t0.5 -58t-10.5 -47.5t-26 -30t-33 -16t-31.5 -4.5q-14 -1 -29.5 -0.5
t-29.5 0.5h-32l-45 128h-439l-44 -128h-29h-34q-20 0 -45 1q-25 0 -41 9.5t-25.5 23t-13.5 29.5t-4 30v167h911zM163 247q-12 0 -21 -8.5t-9 -21.5t9 -21.5t21 -8.5q13 0 22 8.5t9 21.5t-9 21.5t-22 8.5zM316 123q-8 -26 -14 -48q-5 -19 -10.5 -37t-7.5 -25t-3 -15t1 -14.5
t9.5 -10.5t21.5 -4h37h67h81h80h64h36q23 0 34 12t2 38q-5 13 -9.5 30.5t-9.5 34.5q-5 19 -11 39h-368zM336 498v228q0 11 2.5 23t10 21.5t20.5 15.5t34 6h188q31 0 51.5 -14.5t20.5 -52.5v-227h-327z" />
    

    
    <glyph glyph-name="beizi" unicode="&#58891;" d="M975.872 620.544q36.864-6.144 69.12-24.576t55.296-45.568 36.352-61.952 13.312-73.728q0-43.008-16.384-81.408t-44.544-66.56-66.56-44.544-81.408-16.384q-38.912 0-74.24 13.824t-62.976 38.4q-17.408-19.456-37.888-36.352t-43.008-31.232l-455.68 0q-44.032 27.648-78.848 64.512t-61.44 77.824-46.08 84.48-32.768 84.48q-31.744 95.232-43.008 199.68l984.064 0q-1.024-10.24-3.072-22.528-2.048-11.264-4.096-25.6t-6.144-32.768zM941.056 287.744q26.624 0 49.664 9.728t40.448 27.136 27.648 40.448 10.24 49.664q0 24.576-8.704 46.08t-24.064 38.4-35.84 28.16-44.032 14.336q-15.36-52.224-39.936-109.056t-61.44-111.104q35.84-33.792 86.016-33.792zM898.048 125.952q26.624 0 45.568-18.432t18.944-45.056-18.944-45.568-45.568-18.944l-769.024 0q-26.624 0-45.568 18.944t-18.944 45.568 18.944 45.056 45.568 18.432l769.024 0z"  horiz-adv-x="1150" />

    
    <glyph glyph-name="fanhui1" unicode="&#58989;" d="M511.0661 830.4978c-246.1645 0-446.4415-200.277-446.4415-446.4415 0-246.1645 200.277-446.4415 446.4415-446.4415 246.1655 0 446.4425 200.277 446.4425 446.4415C957.5086 630.2198000000001 757.2316 830.4978 511.0661 830.4978zM511.0661-6.582300000000032c-215.4004 0-390.6365 175.2381-390.6365 390.6386 0 215.4004 175.2361 390.6365 390.6365 390.6365 215.4015 0 390.6365-175.2361 390.6365-390.6365C901.7037 168.65589999999997 726.4676-6.582300000000032 511.0661-6.582300000000032zM734.2889 411.9572H355.2051200000001l119.7855 119.7855c10.8995 10.8995 10.8995 28.5573 0 39.4568-10.9005 10.8995-28.5573 10.8995-39.4557 0L268.118 403.7847c-10.8995-10.9005-10.8995-28.5573 0-39.4568L435.5338 196.9121c5.4487-5.4477 12.588-8.1746 19.7284-8.1746s14.2776 2.7269 19.7284 8.1746c10.8995 10.8995 10.8995 28.5573 0 39.4557L355.2051 356.15329999999994h379.083776c15.4225 0 27.902 12.5071 27.902 27.903C762.1908 399.4778 749.7103 411.9572 734.2889 411.9572z"  horiz-adv-x="1024" />

    
    <glyph glyph-name="shuju" unicode="&#58880;" d="M190.016 507.008q31.008 0 45.504-19.008t14.496-42.016l0-436.992-188 0 0 432.992q0 31.008 19.488 48t42.496 16.992l66.016 0zM502.016 752.992q27.008 0 43.008-16.512t16-39.488l0-688-187.008 0 0 686.016q0 15.008 6.016 26.016t15.008 18.016 20 10.496 20 3.488l67.008 0zM812.992 320q8.992 0 19.488-4.992t20-14.016 16-20.512 6.496-24.512l0-247.008-187.008 0 0 244.992q0 11.008 4.512 23.008t12.512 21.504 19.008 15.488 24 6.016l64.992 0z"  horiz-adv-x="1024" />

    
    <glyph glyph-name="pie" unicode="&#59079;" d="M524.560063 427.484374L569.383735 833.360358c0 0 304.737722 14.268982 385.801221-327.092663L524.560063 427.484374 524.560063 427.484374zM494.969952 796.420027c-155.519238-0.394996-305.349684-85.219917-381.380357-233.07436-108.444201-211.05895-25.300236-470.263433 185.853323-578.726727 211.066575-108.460224 470.260188-25.254174 578.74737 185.846732 44.01318 85.570911 56.00682 178.976254 41.102778 267.127943L446.910454 351.147778 494.969952 796.420027 494.969952 796.420027zM494.969952 796.420027"  horiz-adv-x="1024" />

    
    <glyph glyph-name="guanzhu" unicode="&#58929;" d="M513.943229-36.131997c5.329333 0 10.658667-1.279971 15.476012-3.909729l236.70153-127.415286c14.219313-7.633281 32.534533-6.632577 45.892775 2.490125 13.078975 9.006341 19.68828 24.13327 17.081794 39.399832l-46.148769 275.542829c-1.745415 10.402673 1.652326 21.038067 9.169246 28.554987l198.977296 198.581669c10.891389 10.868117 14.568396 26.483762 9.63469 40.819436-5.003523 14.568396-18.035954 25.133974-33.907593 27.484466l-271.446922 40.377264c-10.728483 1.582509-19.944274 8.377991-24.645258 18.129043L552.668167 748.885798c-6.935115 14.405491-22.131861 23.691098-38.724938 23.691098s-31.813095-9.285607-38.794755-23.691098l-117.966773-244.916616c-4.677712-9.774323-13.940047-16.569805-24.645258-18.152315L61.066248 445.416331c-15.662189-2.32722-28.950615-13.12552-33.930865-27.554283-4.910434-14.265858-1.210154-29.85823 9.657962-40.703075l198.954024-198.628213c7.493648-7.493648 10.914661-18.129043 9.169246-28.554987L198.791118-125.497239c-2.606486-15.313107 3.979546-30.463308 17.174882-39.539465 13.12552-9.006341 31.44074-10.100134 45.916047-2.32722l236.585169 127.322197C503.284562-37.411968 508.590623-36.131997 513.943229-36.131997z"  horiz-adv-x="1028" />

    
    <glyph glyph-name="more" unicode="&#59047;" d="M642.174253 391.40582C650.164439 384.164713 650.070886 373.825747 641.84009 366.62380199999996L332.618569 96.05497000000003C323.751654 88.29641800000002 322.853148 74.81881599999997 330.611697 65.95190200000002 338.370249 57.08498799999995 351.847851 56.18648099999996 360.714765 63.945029999999974L669.936288 334.513862C697.36486 358.513862 697.727953 398.641139 670.825747 423.021263L360.992414 703.807722C352.26205 711.719614 338.770837 711.056111 330.858944 702.325748 322.947053 693.595384 323.610556 680.104171 332.340919 672.192277L642.174253 391.40582Z"  horiz-adv-x="1024" />

    
    <glyph glyph-name="iconfontttpodicon2" unicode="&#58934;" d="M967.100755-22.231929C967.100755-95.677352 907.351344-155.398663 833.905921-155.398663L189.630179-155.398663C116.184756-155.398663 56.435346-95.677352 56.435346-22.231929L56.435346 622.070741C56.435346 695.488065 116.184756 755.238646 189.630179 755.238646L833.90475 755.238646C907.350173 755.238646 967.099583 695.489235 967.099583 622.070741L967.099583-22.231929 967.100755-22.231929ZM189.630179 811.026071C85.417316 811.026071 0.646749 726.255504 0.646749 622.069569L0.646749-22.2331C0.646749-126.417864 85.417316-211.18843 189.630179-211.18843L833.90475-211.18843C938.117613-211.18843 1022.88818-126.417864 1022.88818-22.2331L1022.88818 622.069569C1022.88818 726.254333 938.117613 811.026071 833.90475 811.026071L189.630179 811.026071 189.630179 811.026071ZM483.873167 327.799654 293.828992 327.799654C278.40371 327.799654 265.934695 315.330639 265.934695 299.933455 265.934695 284.508172 278.40371 272.039157 293.828992 272.039157L483.873167 272.039157 539.661763 272.039157 729.705937 272.039157C745.131219 272.039157 757.600234 284.508172 757.600234 299.933455 757.600234 315.330639 745.13122 327.799654 729.705937 327.799654L539.661763 327.799654 483.873167 327.799654Z"  horiz-adv-x="1024" />

    
    <glyph glyph-name="close" unicode="&#58881;" d="M836.8 608.8 803.2 642.4 512 351.2 220.8 642.4 187.2 608.8 478.4 316 187.2 24.8 220.8-8.8 512 282.4 803.2-8.8 836.8 24.8 545.6 316Z"  horiz-adv-x="1024" />

    
    <glyph glyph-name="shanchu" unicode="&#58926;" d="M995.555556 641.333333l-85.333333 0 0-768c0-51.399111-33.905778-85.333333-85.333333-85.333333L199.111111-212c-51.399111 0-85.333333 33.934222-85.333333 85.333333L113.777778 641.333333 28.444444 641.333333C2.730667 641.333333 0 654.730667 0 669.777778c0 14.136889 2.730667 28.444444 28.444444 28.444444l398.222222 0L426.666667 755.111111c0 25.713778 31.175111 56.888889 56.888889 56.888889l56.888889 0c25.713778 0 56.888889-33.848889 56.888889-56.888889l0-56.888889 398.222222 0c25.713778 0 28.444444-13.397333 28.444444-28.444444C1024 653.848889 1021.269333 641.333333 995.555556 641.333333zM512 755.111111c-15.701333 0-28.444444-12.743111-28.444444-28.444444s12.743111-28.444444 28.444444-28.444444 28.444444 12.743111 28.444444 28.444444S527.701333 755.111111 512 755.111111zM853.333333 641.333333 170.666667 641.333333l0-739.555556c0-25.713778 31.175111-56.888889 56.888889-56.888889l568.888889 0c25.713778 0 56.888889 31.175111 56.888889 56.888889L853.333333 641.333333zM597.333333 527.555556l56.888889 0 0-568.888889-56.888889 0L597.333333 527.555556zM369.777778 527.555556l56.888889 0 0-568.888889-56.888889 0L369.777778 527.555556z"  horiz-adv-x="1024" />

    
    <glyph glyph-name="ge" unicode="&#58910;" d="M892.785778-27.420443999999975L196.273778-27.420443999999975c-50.225778 0-91.086222 44.657778-91.086222 99.555556L105.187556 619.171556c0 15.708444 11.655111 28.444444 26.026667 28.444444s26.026667-12.736 26.026667-28.444444l0-547.043556c0-23.530667 17.507556-42.666667 39.04-42.666667l696.504889 0c14.371556 0 26.026667-12.736 26.026667-28.444444S907.157333-27.420443999999975 892.785778-27.420443999999975zM349.297778 75.51288899999997l-67.228444 0c-31.793778 0-57.649778 25.863111-57.649778 57.656889L224.419556 369.51466700000003c0 31.793778 25.863111 57.656889 57.649778 57.656889l67.228444 0c31.793778 0 57.649778-25.863111 57.649778-57.656889l0-236.344889C406.954667 101.37599999999998 381.091556 75.51288899999997 349.297778 75.51288899999997zM282.069333 370.28266699999995c-0.355556 0-0.760889-0.412444-0.760889-0.768l0-236.344889c0-0.355556 0.412444-0.768 0.760889-0.768l67.228444 0c0.355556 0 0.760889 0.412444 0.760889 0.768L350.058667 369.51466700000003c0 0.355556-0.412444 0.768-0.760889 0.768L282.069333 370.28266699999995zM567.836444 75.51288899999997l-67.228444 0c-31.793778 0-57.649778 25.863111-57.649778 57.656889L442.958222 715.377778c0 31.793778 25.863111 57.656889 57.649778 57.656889l67.228444 0c31.793778 0 57.656889-25.863111 57.656889-57.656889l0-582.208C625.493333 101.37599999999998 599.623111 75.51288899999997 567.836444 75.51288899999997zM500.600889 716.1457780000001c-0.355556 0-0.760889-0.412444-0.760889-0.768l0-582.208c0-0.355556 0.412444-0.768 0.760889-0.768l67.228444 0c0.362667 0 0.768 0.412444 0.768 0.768L568.597333 715.377778c0 0.355556-0.412444 0.768-0.768 0.768L500.600889 716.1457780000001zM793.479111 75.51288899999997l-67.228444 0c-31.793778 0-57.649778 25.863111-57.649778 57.656889L668.600889 488.362667c0 31.793778 25.863111 57.656889 57.649778 57.656889l67.228444 0c31.793778 0 57.656889-25.863111 57.656889-57.656889l0-355.192889C851.136 101.37599999999998 825.272889 75.51288899999997 793.479111 75.51288899999997zM726.250667 489.130667c-0.355556 0-0.760889-0.412444-0.760889-0.768l0-355.192889c0-0.355556 0.412444-0.768 0.760889-0.768l67.228444 0c0.362667 0 0.768 0.412444 0.768 0.768L794.247111 488.362667c0 0.355556-0.412444 0.768-0.768 0.768L726.250667 489.130667z"  horiz-adv-x="1024" />

    
    <glyph glyph-name="edit" unicode="&#59014;" d="M128.5 75.5l0-160 160 0 471.872 471.872-160 160L128.5 75.5 128.5 75.5zM884.148 511.148c16.64 16.64 16.64 43.52 0 60.16l-99.84 99.84c-16.64 16.64-43.52 16.64-60.16 0l-78.08-78.08 160-160L884.148 511.148 884.148 511.148z"  horiz-adv-x="1024" />

    
    <glyph glyph-name="new" unicode="&#58942;" d="M885.9 544v-532.7h-746.7v745.7h634.7v75.2h-653.5c-31.1 0-56.4-25.3-56.4-56.4v-783.3c0-31.1 25.3-56.4 56.4-56.4h784.3c31.1 0 56.4 25.3 56.4 56.4l0 551.5h-75.2zM773.6 354.3c8.3 8.3 12.8 19.3 12.8 30.9 0 11.7-4.6 22.7-12.8 30.9-8.3 8.3-19.3 12.8-30.9 12.8l-187.7 0v187.8c0 11.7-4.6 22.7-12.8 30.9-8.3 8.3-19.3 12.8-30.9 12.8-11.7 0-22.7-4.6-30.9-12.8-8.3-8.3-12.8-19.3-12.8-30.9l-0-187.8h-187.9c-11.7 0-22.7-4.6-30.9-12.8-8.3-8.3-12.8-19.3-12.8-30.9 0-11.7 4.6-22.7 12.8-30.9 8.3-8.3 19.3-12.8 30.9-12.8h187.8v-187.8c0-24.1 19.6-43.8 43.8-43.8 11.7 0 22.7 4.6 30.9 12.8 8.3 8.3 12.8 19.3 12.8 30.9v187.8h187.8c11.6 0 22.6 4.6 30.8 12.9v0zM773.6 354.3z"  horiz-adv-x="1024" />

    
    <glyph glyph-name="shujutongjixinhao" unicode="&#58990;" d="M912.260591-54.181761 74.680375-54.181761c-15.418154 0-27.918863 12.514012-27.918863 27.918863 0 15.431457 12.500709 27.918863 27.918863 27.918863L912.260591 1.655965c15.418154 0 27.918863-12.487406 27.918863-27.918863C940.180478-41.668773 927.679769-54.181761 912.260591-54.181761zM317.311391 154.264689c0-53.439096-43.323715-96.762811-96.763834-96.762811l-71.707159 0c-53.439096 0-96.763834 43.323715-96.763834 96.762811l0 281.102213c0 53.439096 43.323715 96.763834 96.763834 96.763834l71.707159 0c53.439096 0 96.763834-43.323715 96.763834-96.763834L317.311391 154.264689zM261.473665 435.366901c0 22.602787-18.322297 40.925085-40.925085 40.925085l-71.707159 0c-22.602787 0-40.925085-18.322297-40.925085-40.925085l0-281.102213c0-22.602787 18.322297-40.924061 40.925085-40.924061l71.707159 0c22.602787 0 40.925085 18.321274 40.925085 40.924061L261.473665 435.366901zM638.384967 154.264689c0-53.439096-43.324738-96.762811-96.764857-96.762811l-71.706135 0c-53.439096 0-96.763834 43.323715-96.763834 96.762811L373.15014 588.923206c0 53.439096 43.323715 96.763834 96.763834 96.763834l71.706135 0c53.44012 0 96.764857-43.323715 96.764857-96.763834L638.384967 154.264689zM582.545194 588.923206c0 22.602787-18.322297 40.925085-40.925085 40.925085l-71.706135 0c-22.602787 0-40.925085-18.322297-40.925085-40.925085l0-434.658518c0-22.602787 18.322297-40.924061 40.925085-40.924061l71.706135 0c22.602787 0 40.925085 18.321274 40.925085 40.924061L582.545194 588.923206zM775.322779 629.848291c-7.715729 0-11.301394 6.244214-11.301394 13.959943l0 84.289732c0 27.387767 22.479991 27.387767 31.626301 27.387767l32.855292 0c7.701402 0 13.95892-6.244214 13.95892-13.959943s-6.256494-13.959943-13.95892-13.959943l-32.855292 0c-4.688789 0-7.414877-0.217964-8.982582-0.490164l1.281179-83.267449C787.946284 636.091482 783.024182 629.848291 775.322779 629.848291zM772.66423 599.420281c-3.640923 0-7.266497 1.540076-9.911744 4.049223-2.521426 2.644223-4.048199 6.285147-4.048199 9.910721 0 3.626597 1.526773 7.252171 4.048199 9.911744 5.303796 5.302773 14.654768 5.166673 19.821441 0 2.508123-2.65855 4.049223-6.148024 4.049223-9.911744 0-3.625574-1.541099-7.266497-4.049223-9.910721C779.916401 600.960357 776.290827 599.420281 772.66423 599.420281zM945.496553 154.264689c0-53.439096-43.323715-96.762811-96.762811-96.762811l-71.707159 0c-53.44012 0-96.763834 43.323715-96.763834 96.762811L680.26275 742.479511c0 53.439096 43.323715 96.763834 96.763834 96.763834l71.707159 0c53.439096 0 96.762811-43.323715 96.762811-96.763834L945.496553 154.264689zM889.657804 742.479511c0 22.602787-18.321274 40.925085-40.924061 40.925085l-71.707159 0c-22.602787 0-40.924061-18.322297-40.924061-40.925085l0-588.214822c0-22.602787 18.321274-40.924061 40.924061-40.924061l71.707159 0c22.602787 0 40.924061 18.321274 40.924061 40.924061L889.657804 742.479511z"  horiz-adv-x="1024" />

    
    <glyph glyph-name="bilv" unicode="&#58908;" d="M489.570151 793.623331l-24.991184 0c-222.143403 0-402.851091-196.875926-402.851091-438.885795 0-234.888681 187.079816-418.923138 425.892877-418.923138 238.163261 0 431.91708 186.55486 431.91708 415.871639l0 24.992207L489.570151 376.678244 489.570151 793.623331 489.570151 793.623331zM868.707145 326.723505c-13.470803-190.130292-179.233104-340.903204-381.061832-340.903204-210.793914 0-375.909485 162.04156-375.909485 368.94077 0 205.173916 144.919601 373.763612 327.881632 387.906727l0-386.233622c0-7.994068 3.121084-15.520485 8.81783-21.139459 5.625114-5.548366 13.047154-8.598842 20.891819-8.598842l399.380036 0L868.707145 326.723505zM868.707145 326.723505M533.3564 832.185602l-24.991184 0L508.365216 421.060057c0-7.893784 3.221368-15.615653 9.070586-21.364587 5.624091-5.40101 12.945847-8.374738 20.668739-8.374738l424.166559 0 0 24.991184C962.2711 649.528516 773.866103 832.185602 533.3564 832.185602L533.3564 832.185602zM558.347584 441.304124 558.347584 781.454174c191.851493-11.520381 340.770174-155.019633 353.11534-340.149027L558.347584 441.305147 558.347584 441.304124zM558.347584 441.304124"  horiz-adv-x="1024" />

    
    <glyph glyph-name="other" unicode="&#58919;" d="M1036.8 655.542857C1036.8 593.980952 1014.857143 541.561905 970.971429 498.285714 927.695237 455.009523 875.276191 433.371429 813.714286 433.371429 752.15238 433.371429 699.733334 455.009523 656.457143 498.285714 613.180952 541.561905 591.542857 593.980952 591.542857 655.542857 591.542857 717.104762 613.180952 769.523809 656.457143 812.8 699.733334 856.685714 752.15238 878.628571 813.714286 878.628571 875.276191 878.628571 927.695237 856.685714 970.971429 812.8 1014.857143 769.523809 1036.8 717.104762 1036.8 655.542857L1036.8 655.542857ZM601.6 302.628571 1021.257143 302.628571 1021.257143-117.028571 601.6-117.028571 601.6 302.628571 601.6 302.628571ZM25.6 857.6 445.257143 857.6 445.257143 437.942857 25.6 437.942857 25.6 857.6 25.6 857.6ZM25.6 302.628571 445.257143 302.628571 445.257143-117.028571 25.6-117.028571 25.6 302.628571 25.6 302.628571Z"  horiz-adv-x="1061" />

    
    <glyph glyph-name="tuichu" unicode="&#58947;" d="M919.324444 343.779556 750.023111 173.624889C727.950222 151.438222 692.110222 151.438222 669.980444 173.624889 647.907556 195.868444 647.907556 231.879111 669.980444 254.065778L742.627556 327.111111 427.064889 327.111111C395.776 327.111111 370.460444 352.597333 370.460444 384 370.460444 415.402667 395.776 440.888889 427.064889 440.888889L743.196444 440.888889 669.980444 514.446222C647.907556 536.632889 647.907556 572.700444 669.980444 594.887111 692.110222 617.130667 727.950222 617.130667 750.023111 594.887111L919.324444 424.732444C930.417778 413.582222 935.879111 398.904889 935.822222 384.284444 935.879111 369.607111 930.417778 354.929778 919.324444 343.779556ZM427.064889 725.333333 200.647111 725.333333 200.647111 42.666667 427.064889 42.666667C458.296889 42.666667 483.612444 17.180444 483.612444-14.222222 483.612444-45.624889 458.296889-71.111111 427.064889-71.111111L200.647111-71.111111C138.183111-71.111111 87.495111-20.195556 87.495111 42.666667L87.495111 725.333333C87.495111 788.195556 138.183111 839.111111 200.647111 839.111111L427.064889 839.111111C458.296889 839.111111 483.612444 813.624889 483.612444 782.222222 483.612444 750.819556 458.296889 725.333333 427.064889 725.333333Z"  horiz-adv-x="1024" />

    
    <glyph glyph-name="site" unicode="&#58909;" d="M514.327273 869.934545c-214.109091 0-387.258182-172.218182-387.258182-385.396364 0-97.745455 38.167273-188.974545 98.676364-256.930909l251.345455-316.509091c19.549091-25.134545 52.130909-25.134545 71.68 0l250.414545 316.509091c63.301818 68.887273 102.4 156.392727 102.4 256.930909C901.585455 696.785455 728.436364 869.934545 514.327273 869.934545L514.327273 869.934545z"  horiz-adv-x="1024" />

    
    <glyph glyph-name="wenhao" unicode="&#58895;" d="M512 819C271.8 819 77 624.2 77 384c0-240.2 194.8-435 435-435 240.2 0 435 194.8 435 435C947 624.2 752.2 819 512 819L512 819zM509.2 79.60000000000002c-35.4 0-64.2 28.2-64.2 62.9s28.7 62.9 64.2 62.9c35.4 0 64.2-28.2 64.2-62.9S544.7 79.60000000000002 509.2 79.60000000000002L509.2 79.60000000000002zM681.6 435.5c-12.6-19.8-39.3-46.7-80.3-80.8-21.2-17.6-34.4-31.8-39.5-42.6-5.1-10.7-7.5-29.9-7-57.6l-91.4 0c-0.2 13.1-0.4 21.1-0.4 24 0 29.6 4.9 53.9 14.7 73 9.8 19.1 29.4 40.6 58.7 64.4 29.3 23.9 46.9 39.5 52.6 46.9 8.8 11.7 13.3 24.6 13.3 38.6 0 19.5-7.9 36.2-23.5 50.2-15.6 13.9-36.8 20.9-63.3 20.9-25.6 0-47-7.3-64.2-21.8-17.2-14.5-32-46.5-35.5-66.3-3.3-18.7-93.4-26.6-92.3 11.3 1.1 37.9 20.8 79 54.6 108.8 33.8 29.8 78.2 44.7 133.1 44.7 57.8 0 103.7-15.1 137.9-45.3 34.2-30.2 51.2-65.3 51.2-105.4C700.4 476.3 694.1 455.3 681.6 435.5L681.6 435.5z"  horiz-adv-x="1024" />

    
    <glyph glyph-name="jia" unicode="&#58923;" d="M816.515602 485.020703 542.845645 485.020703 542.845645 758.69066 482.030099 758.69066 482.030099 485.020703 208.360142 485.020703 208.360142 424.205157 482.030099 424.205157 482.030099 150.535201 542.845645 150.535201 542.845645 424.205157 816.515602 424.205157Z"  horiz-adv-x="1024" />

    
    <glyph glyph-name="1" unicode="&#58916;" d="M778.973936 64.481849 192.480314 650.975471c-14.509459 14.509459-14.509459 38.033221 0 52.541657s38.033221 14.509459 52.541657 0l586.494645-586.494645c14.509459-14.509459 14.509459-38.032198 0-52.541657S793.483394 49.972391 778.973936 64.481849zM192.483384 64.480826c-14.509459 14.509459-14.509459 38.033221 0 52.54268l586.493621 586.494645c14.508435 14.509459 38.032198 14.509459 52.541657 0s14.509459-38.033221 0-52.541657L245.024018 64.481849C230.514559 49.972391 206.990796 49.972391 192.483384 64.480826z"  horiz-adv-x="1024" />

    
    <glyph glyph-name="yongjin" unicode="&#58930;" d="M68.65 384c0 244.854 198.495 443.35 443.35 443.35s443.35-198.495 443.35-443.35-198.495-443.348-443.35-443.348-443.35 198.493-443.35 443.348zM0.443 384c0-282.521 229.035-511.556 511.556-511.556s511.556 229.036 511.556 511.556c0 282.522-229.035 511.556-511.556 511.556-282.522 0-511.556-229.035-511.556-511.556zM337.401 352.327c0-18.718 15.62-19.484 34.919-19.484h105.574v-68.206h-104.758c-19.3 0-35.735-31.007-35.735-49.692 0-18.718 15.62-18.517 34.919-18.517h105.574v-126.957c0-18.718 14.82-26.511 34.105-26.511 19.283 0 34.105 15.153 34.105 33.871v119.597h104.758c19.284 0 35.735-0.201 35.735 18.517 0 18.685-15.637 49.692-34.919 49.692h-105.574v68.206h104.758c19.284 0 35.735 0.766 35.735 19.484 0 18.684-15.637 48.724-34.919 48.724h-105.574v25.579l142.426 138.314c13.637 13.222 14.453 34.636 0.816 47.858-13.639 13.255-35.754 13.255-49.392 0l-127.954-124.026-127.955 124.026c-13.637 13.255-35.753 13.255-49.391 0-13.637-13.222-12.822-34.636 0.816-47.858l142.427-138.147v-25.743h-104.758c-19.3-0.001-35.737-30.041-35.737-48.724z"  horiz-adv-x="1024" />

    
    <glyph glyph-name="duihao" unicode="&#58997;" d="M511.55930773 729.70838331c-190.67002297 0-345.24200002-154.57197782-345.24200002-345.24200004 0-190.66923197 154.57197782-345.24041954 345.24200002-345.24041954 190.67160347 0 345.24279027 154.5711868 345.24279028 345.24041955C856.80209801 575.13719573 702.23091121 729.70838331 511.55930773 729.70838331L511.55930773 729.70838331zM715.43429296 498.40770524c-0.45926877-12.82711402-4.82192619-23.60135168-13.09350551-32.32192352L478.3646947 230.04301597999995l2.7548216 2.9026411c-8.26604608-8.71187685-19.06557924-13.18678202-32.38990451-13.43104053-13.32748778-0.24504877-24.12069669 3.99113191-32.38911427 12.70775098l-95.79823225 101.68493424c-8.26841758 8.71661908-12.28405397 19.00471275-12.05797722 30.8666502 0.23002952 11.86035696 4.47885793 22.14844986 12.7520185 30.8650697 8.26762733 8.71503859 18.37470048 12.95675251 30.31963895 12.71170375 11.94889045-0.24663002 22.05596438-4.71995393 30.32042919-13.43894528l66.85323787-69.72188848 194.34417237 204.81486629c8.26841758 8.71345733 18.37549072 13.19152503 30.32042919 13.43420228 11.94493847 0.24504877 22.05201161-3.99429366 30.32754371-12.7109135C711.98780157 522.01142842 715.8975145 511.23718999 715.43429296 498.40770524L715.43429296 498.40770524zM715.43429296 498.40770524"  horiz-adv-x="1024" />

    
    <glyph glyph-name="kehutousu" unicode="&#59015;" d="M515.149 22.882c-30.063 0-60.122 2.733-88.816 8.198l-209.05-127.078 0 210.422c-109.308 76.514-178.992 194.019-178.992 325.19 0 230.915 213.152 418.105 476.858 418.105 263.704 0 476.849-187.19 476.849-418.105-0.001-230.91-213.145-416.732-476.849-416.732zM515.149 797.6c-230.915 0-418.107-159.863-418.107-357.986 0-121.603 71.05-228.177 177.628-292.396l0-139.369 140.733 84.717c32.794-6.839 65.585-10.941 101.111-10.941 230.91 0 418.101 159.867 418.101 357.988-1.36 198.124-188.556 357.986-419.466 357.986zM724.201 469.674l-418.107 0c-16.394 0-30.061 13.664-30.061 30.061 0 16.394 13.666 30.058 30.061 30.058l418.107 0c16.397 0 30.056-13.664 30.056-30.058 0-16.397-13.659-30.061-30.056-30.061zM366.216 350.804l297.86 0c16.397 0 30.061-13.664 30.061-30.061 0-16.392-13.664-30.066-30.061-30.066l-297.86 0c-16.399 0-30.061 13.664-30.061 30.066 0 16.397 13.661 30.061 30.061 30.061z"  horiz-adv-x="1024" />

    
    <glyph glyph-name="juxing23" unicode="&#58967;" d="M0-128 0-67.764706 90.352941-67.764706 90.352941 775.529412C90.352941 842.059294 144.293647 896 210.823529 896L632.470588 896C699.000471 896 752.941176 842.059294 752.941176 775.529412L752.941176 534.588235 993.882353 534.588235C1060.412235 534.588235 1114.352941 480.647529 1114.352941 414.117647L1114.352941-67.764706 1204.705882-67.764706 1204.705882-128 0-128ZM692.705882 775.529412C692.705882 808.809412 665.750588 835.764706 632.470588 835.764706L210.823529 835.764706C177.543529 835.764706 150.588235 808.809412 150.588235 775.529412L150.588235-67.764706 692.705882-67.764706 692.705882 775.529412ZM1054.117647 414.117647C1054.117647 447.397647 1027.162353 474.352941 993.882353 474.352941L752.941176 474.352941 752.941176-67.764706 1054.117647-67.764706 1054.117647 414.117647ZM993.882353 263.529412 813.176471 263.529412 813.176471 323.764706 993.882353 323.764706 993.882353 263.529412ZM993.882353 82.823529 813.176471 82.823529 813.176471 143.058824 993.882353 143.058824 993.882353 82.823529ZM391.529412 564.705882 210.823529 564.705882 210.823529 624.941176 391.529412 624.941176 391.529412 564.705882ZM391.529412 384 210.823529 384 210.823529 444.235294 391.529412 444.235294 391.529412 384ZM391.529412 203.294118 210.823529 203.294118 210.823529 263.529412 391.529412 263.529412 391.529412 203.294118ZM632.470588 564.705882 451.764706 564.705882 451.764706 624.941176 632.470588 624.941176 632.470588 564.705882ZM632.470588 384 451.764706 384 451.764706 444.235294 632.470588 444.235294 632.470588 384ZM632.470588 203.294118 451.764706 203.294118 451.764706 263.529412 632.470588 263.529412 632.470588 203.294118Z"  horiz-adv-x="1205" />

    
    <glyph glyph-name="tixing" unicode="&#58970;" d="M511.999488 35.915233c-192.84103 0-349.139795 155.890466-349.139795 348.084767 0 192.262862 156.297742 348.08579 349.139795 348.08579 192.806237 0 349.139795-155.822928 349.139795-348.08579C861.13826 191.8057 704.805726 35.915233 511.999488 35.915233L511.999488 35.915233 511.999488 35.915233zM565.401746 553.624259c0 26.649963-27.466562 48.269353-54.218856 48.269353-26.752294 0-53.402257-21.61939-53.402257-48.269353l0-201.168696c0-26.650987 21.686928-48.270377 48.371684-48.270377 26.752294 0 59.249429 21.61939 59.249429 48.270377L565.401746 553.624259 565.401746 553.624259 565.401746 553.624259zM512.815063 278.078599c-30.219255 0-54.659901-24.474414-54.659901-54.592362s24.440645-54.523801 54.659901-54.523801 54.763255 24.406876 54.763255 54.523801S543.034319 278.078599 512.815063 278.078599L512.815063 278.078599 512.815063 278.078599zM512.815063 278.078599"  horiz-adv-x="1024" />

    
    <glyph glyph-name="success" unicode="&#58922;" d="M803.84 605.866667C813.146453 605.866667 820.864 602.786133 827.025067 596.625067 833.186133 590.464 836.266667 582.746453 836.266667 573.44 836.266667 564.328107 833.153707 556.642987 826.89536 550.38464L437.77536 161.26464C431.517013 155.006293 423.831893 151.893333 414.72 151.893333 405.608107 151.893333 397.922987 155.006293 391.66464 161.26464L197.10464 355.82464C190.846293 362.082987 187.733333 369.768107 187.733333 378.88 187.733333 388.186453 190.813867 395.904 196.974933 402.065067 203.136 408.226133 210.853547 411.306667 220.16 411.306667 229.271893 411.306667 236.957013 408.193707 243.21536 401.93536L414.72 230.171307 780.78464 596.49536C787.042987 602.753707 794.728107 605.866667 803.84 605.866667"  horiz-adv-x="1024" />

    
    <glyph glyph-name="xiazai" unicode="&#58902;" d="M894.996904 257.065006l0-147.687644c0-12.30935-4.313236-22.772656-12.923334-31.383778-8.616238-8.617261-19.080567-12.922311-31.382754-12.922311l-679.362752 0c-12.30935 0-22.773679 4.305049-31.383778 12.922311-8.617261 8.611122-12.922311 19.074428-12.922311 31.383778L127.021975 257.065006c0 12.302187 4.305049 22.765493 12.922311 31.383778 8.610098 8.610098 19.074428 12.922311 31.383778 12.922311l214.607776 0 62.306045-62.767556c17.841344-17.234523 38.767955-25.844621 62.766532-25.844621 23.9996 0 44.919049 8.610098 62.767556 25.844621l62.767556 62.767556 214.147288 0c12.301164 0 22.766516-4.312212 31.382754-12.922311C890.683668 279.830499 894.996904 269.367193 894.996904 257.065006zM745.002728 519.671982c5.228071-12.620435 3.071965-23.38664-6.461155-32.3068L531.779486 280.603095c-5.54018-5.849218-12.461823-8.768711-20.770046-8.768711-8.306176 0-15.229866 2.920516-20.767999 8.768711L283.47833 487.366206c-9.540284 8.92016-11.69639 19.686365-6.461155 32.3068 5.228071 11.999288 14.306844 17.998933 27.229155 17.998933l118.14991 0L422.396239 744.434026c0 7.997138 2.920516 14.920828 8.768711 20.769023 5.841032 5.841032 12.764722 8.768711 20.769023 8.768711l118.14991 0c7.996115 0 14.919804-2.927679 20.767999-8.768711 5.842055-5.848195 8.767688-12.770861 8.767688-20.769023l0-206.762087 118.151957 0C730.694861 537.671938 739.76647 531.671271 745.002728 519.671982zM709.002816 132.915451c5.842055 5.841032 8.769734 12.764722 8.769734 20.769023 0 7.996115-2.927679 14.919804-8.769734 20.767999-5.848195 5.841032-12.770861 8.768711-20.767999 8.768711-8.004301 0-14.927991-2.927679-20.770046-8.768711-5.848195-5.848195-8.767688-12.770861-8.767688-20.767999 0-8.004301 2.920516-14.927991 8.767688-20.769023 5.842055-5.848195 12.765745-8.768711 20.770046-8.768711C696.231955 124.145717 703.155644 127.067256 709.002816 132.915451zM827.152726 132.915451c5.842055 5.841032 8.769734 12.764722 8.769734 20.769023 0 7.996115-2.927679 14.919804-8.769734 20.767999-5.848195 5.841032-12.770861 8.768711-20.767999 8.768711-8.004301 0-14.927991-2.927679-20.767999-8.768711-5.850242-5.848195-8.769734-12.770861-8.769734-20.767999 0-8.004301 2.920516-14.927991 8.769734-20.769023 5.840008-5.848195 12.763698-8.768711 20.767999-8.768711C814.381865 124.145717 821.305555 127.067256 827.152726 132.915451z"  horiz-adv-x="1024" />

    
    <glyph glyph-name="iconfontzhizuobiaozhun20" unicode="&#58985;" d="M824.314587 236.892571c-24.52251 14.159488-52.374858 21.641903-80.546477 21.641903-27.841092 0-55.371098-7.237845-79.614246-20.929682-19.84907-11.211343-37.060057-26.565029-50.537-44.919049l-193.054901 111.457488c21.162995 37.141922 26.731828 80.291674 15.659655 121.618918-3.618411 13.501502-8.880251 26.28055-15.601326 38.125319l192.997596 111.425765c13.475919-18.355043 30.686906-33.706683 50.537-44.919049 24.242124-13.69286 51.77213-20.929682 79.614246-20.929682 28.17162 0 56.023968 7.482415 80.546477 21.640879 37.325094 21.549805 64.024176 56.344263 75.181283 97.975429 11.155061 41.632189 5.430686 85.11554-16.121166 122.440633-14.425547 24.985044-35.262108 45.652759-60.257385 59.771315-24.243147 13.69286-51.773154 20.930705-79.614246 20.930705-28.170596 0-56.022944-7.483438-80.545454-21.641903-71.864748-41.491996-99.739609-130.297578-67.075675-204.581422l-196.200544-113.275903c-11.059893 12.106736-24.031323 22.579251-38.641065 31.014364-24.52251 14.157441-52.374858 21.640879-80.546477 21.640879-27.840068 0-55.370075-7.236821-79.614246-20.930705-24.995277-14.117532-45.831838-34.786271-60.256362-59.772338-21.550829-37.325094-27.275203-80.808444-16.120143-122.438587s37.855166-76.426647 75.181283-97.976452c24.51944-14.156418 52.370765-21.639856 80.543408-21.640879 0.004093 0 0.005117 0 0.00921 0 27.836999 0 55.364959 7.236821 79.607082 20.928658 14.897292 8.414647 28.300556 19.170618 39.765679 31.765471l196.265012-113.311719c-14.778588-33.495882-17.709337-70.738088-8.098445-106.610086 11.156084-41.631166 37.85619-76.426647 75.181283-97.975429 24.51944-14.157441 52.371788-21.639856 80.544431-21.641903 0.00307 0 0.005117 0 0.008186 0 27.836999 0 55.364959 7.236821 79.608106 20.929682 24.994254 14.117532 45.830815 34.786271 60.256362 59.772338 21.551852 37.325094 27.276227 80.808444 16.121166 122.438587C888.338762 180.549332 861.638657 215.343789 824.314587 236.892571zM682.589748 776.57812c18.561751 10.717086 39.624463 16.382109 60.912301 16.382109 43.552935 0 84.117816-23.400966 105.867166-61.069891 16.306384-28.243251 20.638039-61.144592 12.196787-92.645027-8.44023-31.500435-28.64234-57.828057-56.885592-74.133418-18.561751-10.717086-39.625486-16.381086-60.913325-16.381086-43.552935 0-84.117816 23.399943-105.867166 61.068867C604.241332 668.1005 624.288924 742.917486 682.589748 776.57812zM280.229844 261.886825c-21.289885 0-42.35362 5.664-60.912301 16.380062-28.243251 16.306384-48.445362 42.634006-56.885592 74.134441-8.441253 31.499411-4.110621 64.400752 12.195763 92.64298 21.748327 37.669948 62.314231 61.070914 105.866143 61.070914 21.288862 0 42.352597-5.664 60.913325-16.381086 28.243251-16.305361 48.445362-42.632983 56.886615-74.133418 8.439206-31.500435 4.107551-64.403822-12.19781-92.645027C364.345614 285.283698 323.780733 261.882732 280.229844 261.886825zM849.370239 36.109662c-21.751397-37.670971-62.315254-61.071937-105.866143-61.069891-21.290909 0.001023-42.354644 5.665023-60.913325 16.381086-28.242228 16.307408-48.445362 42.634006-56.885592 74.134441s-4.109598 64.401776 12.195763 92.64298c21.74935 37.669948 62.315254 61.070914 105.867166 61.070914 21.288862 0 42.352597-5.665023 60.913325-16.381086 28.243251-16.306384 48.445362-42.634006 56.885592-74.134441C870.008278 97.25323 865.6756 64.352913 849.370239 36.109662z"  horiz-adv-x="1024" />

    
    <glyph glyph-name="bar" unicode="&#59168;" d="M100.541837-99.84608600000001c-0.066665-18.266289-9.466471-27.866091-27.73276-27.999421-15.266351-0.133331-30.492703-0.266661-45.759054 0-17.039648 0.266661-26.866111 9.999793-26.866111 26.799446-0.133331 108.131099-0.133331 861.78219 0 969.939955 0 16.95965 10.373119 26.906111 27.399434 26.999442 14.066376 0.133331 28.132752 0.066665 42.199128 0.066665 21.866215 0 30.799363-8.933149 30.799363-30.866029 0.066665-52.798909 0-750.957814 0-803.743389C100.541837 7.751690000000053 100.675167-46.11386300000004 100.541837-99.84608600000001zM255.938625-53.713706c-24.932818 0.399992-39.239189 14.933025-39.37252 39.732512-0.159997 21.999545-0.159997 43.86576 0 65.731975 0.133331 25.999463 14.639697 40.665826 40.772491 40.799157 70.998533 0 214.128908 0 285.060775-0.133331 25.799467 0 40.132504-14.399702 40.3325-39.999173 0.266661-21.066231 0.199996-42.399124 0.066665-63.465355-0.133331-29.066066-13.533054-42.665785-42.799115-42.799115-34.53262-0.133331-141.463743 0-176.063028 0C328.003803-53.847036 292.004547-53.980367 255.938625-53.713706zM262.80515 310.412102c-30.532702 0-44.399082 14.133041-44.399082 44.905739 0 20.466244-0.133331 40.932487 0 61.332066 0.133331 25.46614 14.706363 40.692492 39.999173 40.732492 108.57109 0.239995 397.191791 0.239995 505.589551 0 24.999483-0.066665 39.19919-15.066355 39.532516-40.025839 0.133331-21.132897 0-42.332458 0-63.53202-0.133331-29.532723-14.066376-43.332438-43.532434-43.332438-52.732244 0-285.394102 0-338.05968 0C368.869625 310.412102 315.87072 310.412102 262.80515 310.412102zM982.856936 822.934843c26.666116 0 40.532496-13.826381 40.799157-40.359166 0.399992-22.199541 0.533322-44.439082 0-66.571958-0.399992-24.799487-14.599698-39.132525-39.132525-39.132525-157.796739-0.199996-570.054886-0.199996-727.851624 0-24.706156 0-39.239189 14.99969-39.439185 39.865843-0.159997 20.49291 0 40.932487 0 61.358732 0 31.839342 12.999731 44.865739 45.105734 44.865739 76.931743 0 153.930152 0 230.861896 0C571.598768 823.0015089999999 904.458556 823.068174 982.856936 822.934843z"  horiz-adv-x="1024" />

    
    <glyph glyph-name="export" unicode="&#58905;" d="M874.366362 314.99227099999996C850.153515 314.99227099999996 830.365356 295.32701699999996 830.365356 270.991265L830.365356 20.382183000000055C830.365356 7.722675999999979 820.164008-2.478674999999953 807.504496-2.478674999999953L110.617055-2.478674999999953C97.957547-2.478674999999953 87.756197 7.722675999999979 87.756197 20.382183000000055L87.756197 741.9741C87.756197 754.633612 97.957547 764.83496 110.617055 764.83496L423.540411 764.83496C447.753255 764.83496 467.541417 784.500214 467.541417 808.835965 467.541417 833.171717 447.876163 852.836971 423.540411 852.836971L110.739962 852.836971C49.654767 852.836971 0 803.182203 0 742.0970110000001L0 20.505090999999993C0-40.45719699999995 49.654767-90.11196399999994 110.739962-90.11196399999994L807.750312-90.11196399999994C868.835511-90.11196399999994 918.490279-40.45719699999995 918.490279 20.627998000000048L918.490279 270.991265C918.367367 295.204109 898.579208 314.99227099999996 874.366362 314.99227099999996L874.366362 314.99227099999996ZM414.936862 573.3445469999999C362.086492 493.454452 349.181168 414.916344 347.95209 406.189888 344.633579 382.09995100000003 361.349045 359.730725 385.193165 356.41221299999995 387.159691 356.04349 389.372032 355.92058099999997 391.461465 355.92058099999997 413.093244 355.92058099999997 431.775236 372.144416 434.97084 393.284564 435.339564 396.234352 446.524177 462.604585 489.664828 526.6395689999999 546.325341 610.708532 631.500473 653.603368 742.363345 653.972089 744.084053 653.849184 745.558944 653.726272 746.788026 653.726272 771.000872 653.726272 790.789031 673.391527 790.789031 697.7272780000001L790.789031 749.471482 914.311407 631.971589 790.666127 528.974818 790.666127 571.009299C790.666127 595.222143 771.000872 615.010302 746.665121 615.010302 722.452274 615.010302 702.664109 595.345047 702.664109 571.009299L702.664109 435.073229C702.664109 418.111948 712.619647 402.502652 728.106037 395.25109 733.882704 392.42421 740.396821 391.072223 746.665121 391.072223 756.989374 391.072223 766.944913 394.759458 774.688104 401.150666L1008.335909 595.7137749999999C1017.92272 603.9485999999999 1023.699387 615.6248459999999 1023.945203 628.038535 1024.436829 640.575135 1019.520516 652.743014 1010.425338 661.469471L776.900445 883.80975C764.118028 896.100534 745.436039 899.296133 729.335112 892.413296 713.11128 885.407546 702.78702 869.552436 702.78702 851.976617L702.78702 740.253392C548.291867 727.348071 461.027301 642.66457 414.936862 573.3445469999999L414.936862 573.3445469999999Z"  horiz-adv-x="1025" />

    
    <glyph glyph-name="pdf1" unicode="&#58991;" d="M493.638305 402.489096c0 0-8.708336-33.013905-27.351951-66.940598-18.642592-33.926694-35.184337-53.195549-35.184337-53.195549s49.792033 12.325723 69.113077 16.335037c22.199605 4.608971 51.880601 7.261381 63.139016 7.856945 0 0-23.911596 26.78197-33.695427 39.818891C519.825734 359.466234 493.638305 402.489096 493.638305 402.489096zM259.370771 135.33250099999998c11.728112-6.701632 36.440957 6.284123 51.938929 24.293289 12.558014 14.594393 39.372729 54.870702 39.372729 54.870702s-49.845245-14.659885-72.463382-36.021401C255.601934 157.11357299999997 252.384659 139.32544099999996 259.370771 135.33250099999998zM507.695462 555.310667c0.653893 17.591657 11.651364 69.809949-15.715937 77.070306 0 0-29.040407-1.116427-26.960025-46.935985 1.428535-31.480992 23.609721-92.684936 23.609721-92.684936S507.043616 537.719011 507.695462 555.310667zM696.941618 276.06882499999995c-26.386974 2.512217-52.937676 3.699252-52.937676 3.699252s52.075029-49.65184 70.808696-64.017012c16.754592-12.845563 45.796022-8.93551 51.939953 8.93551C777.617032 256.29241 723.328591 273.556609 696.941618 276.06882499999995zM855.733157 832.16002L168.26582 832.16002c-57.672514 0-104.425328-46.752814-104.425328-104.426351l0-687.46836c0-57.672514 46.752814-104.425328 104.425328-104.425328L855.733157-64.16002000000003c57.672514 0 104.425328 46.752814 104.425328 104.425328L960.158485 727.733669C960.158485 785.407206 913.406694 832.16002 855.733157 832.16002zM724.307895 168.84168499999998c-82.09781 18.429745-132.851751 106.275465-132.851751 106.275465s-30.92329-0.723477-82.024132-8.68173c-48.250934-7.513114-104.430444-30.461779-104.430444-30.461779S345.655949 121.92923599999995 288.69054 103.498468c-56.965409-18.429745-101.265358 30.508851-50.262754 88.799442 43.979654 50.261731 139.222855 69.578682 139.222855 69.578682s38.373982 46.864354 58.478879 86.655615c20.10592 39.793308 38.535665 91.732238 38.535665 91.732238s-38.535665 88.798419-41.888016 139.062196c-3.349281 50.262754 26.807552 85.448114 56.965409 88.798419 38.301328 4.25593 82.815147-31.833009 17.951861-217.808678 0 0 18.909675-43.561122 45.716204-73.720002 26.807552-30.15888 58.08286-61.434188 58.08286-61.434188s95.427396 10.398838 158.821215-21.977547C839.912843 257.638057 806.404682 150.41194099999996 724.307895 168.84168499999998z"  horiz-adv-x="1024" />

    
    <glyph glyph-name="dianhua" unicode="&#58921;" d="M977.344 99.584c0-11.84-2.176-27.328-6.656-46.528-4.416-19.264-9.024-34.304-13.888-45.312-9.28-22.08-36.224-45.376-80.64-70.016-41.408-22.528-82.432-33.728-123.008-33.728-11.84 0-23.424 0.704-34.688 2.304-11.328 1.536-23.936 4.224-38.016 8.192-14.144 3.968-24.576 7.232-31.424 9.6-6.784 2.368-19.008 6.976-36.672 13.632-17.536 6.592-28.352 10.56-32.384 11.904-43.136 15.424-81.728 33.6-115.712 54.784-56.384 34.752-114.688 82.368-174.784 142.464-60.16 60.16-107.648 118.464-142.464 174.848-21.12 33.856-39.424 72.448-54.848 115.648C90.88 441.344 86.976 452.16 80.384 469.76 73.728 487.424 69.248 499.648 66.816 506.496 64.384 513.28 61.184 523.776 57.28 537.856c-4.032 14.08-6.72 26.752-8.256 38.016C47.424 587.072 46.656 598.656 46.656 610.56c0 40.576 11.2 81.536 33.728 122.944 24.704 44.544 48 71.424 70.016 80.64 11.008 4.864 26.112 9.472 45.312 13.888 19.2 4.352 34.752 6.592 46.656 6.592 6.208 0 10.816-0.64 13.888-1.984C264.128 830.016 275.776 813.312 291.2 782.464c4.864-8.448 11.456-20.288 19.904-35.712 8.32-15.424 16-29.376 23.104-41.984 7.04-12.544 13.888-24.32 20.48-35.328 1.344-1.792 5.184-7.232 11.584-16.512 6.4-9.28 11.136-17.152 14.208-23.488 3.072-6.4 4.608-12.672 4.608-18.88 0-8.832-6.272-19.84-18.816-33.088-12.544-13.184-26.24-25.344-41.024-36.352-14.72-11.008-28.416-22.656-40.96-35.008C271.744 493.76 265.408 483.648 265.408 475.712c0-3.968 1.152-8.896 3.328-14.848 2.24-5.952 4.096-10.496 5.632-13.568 1.536-3.072 4.608-8.384 9.28-15.872C288.256 424 290.752 419.776 291.2 418.88c33.472-60.352 71.808-112.128 115.008-155.328 43.2-43.264 94.976-81.472 155.328-115.072 0.896-0.384 5.056-2.944 12.608-7.552 7.424-4.608 12.736-7.68 15.808-9.28s7.616-3.456 13.568-5.632 10.88-3.264 14.848-3.264c7.936 0 18.048 6.272 30.4 18.752 12.352 12.608 24 26.24 35.072 41.088 11.008 14.72 23.04 28.416 36.352 40.96 13.12 12.544 24.192 18.816 33.024 18.816 6.208 0 12.48-1.472 18.816-4.608 6.528-3.136 14.272-7.808 23.488-14.208 9.28-6.464 14.72-10.24 16.512-11.648 11.072-6.528 22.848-13.376 35.456-20.416s26.496-14.72 41.92-23.104 27.264-14.976 35.712-19.904c30.848-15.36 47.616-27.072 50.176-35.008C976.768 110.464 977.344 105.792 977.344 99.584z"  horiz-adv-x="1024" />

    
    <glyph glyph-name="chanpinyufuwu" unicode="&#59355;" d="M158.662603 335.959867l192.295608 0c23.546276 0 47.099714-11.771091 62.794162-27.473725 19.623943-15.697517 31.391964-39.243793 31.391964-62.793138L445.144336 41.618119c0-23.546276-11.771091-47.099714-31.391964-62.793138-15.69854-15.697517-39.244816-23.546276-62.794162-23.546276L158.662603-44.721295c-27.472702 0-51.013861 7.851828-66.713424 23.546276-15.699564 15.694447-27.472702 39.244816-27.472702 62.793138L64.476477 245.693004c0 23.546276 11.771091 47.099714 27.472702 62.793138C107.650789 324.18059 131.193994 335.959867 158.662603 335.959867L158.662603 335.959867zM350.963327 273.163659 158.666696 273.163659c-7.851828 0-19.623943-3.924379-23.545252-11.771091-3.924379-3.924379-7.851828-7.851828-7.851828-15.697517l0-204.074885c0-3.923356 3.923356-11.770068 7.851828-15.697517 3.923356-3.924379 15.697517-7.851828 23.545252-7.851828l192.296631 0c7.851828 0 15.697517 3.924379 23.545252 7.851828 3.924379 3.924379 7.851828 11.771091 7.851828 15.697517L382.360408 245.695051c0 7.851828-3.923356 11.771091-7.851828 15.697517C366.656751 269.244396 358.811062 273.163659 350.963327 273.163659L350.963327 273.163659zM562.881854 335.959867l192.295608 0c27.472702 0 51.013861-11.771091 66.714448-27.473725 19.623943-15.697517 27.472702-39.243793 27.472702-62.793138L849.364611 41.618119c0-23.546276-7.851828-47.099714-27.472702-62.793138-15.69854-15.697517-39.244816-23.546276-66.714448-23.546276L562.881854-44.721295c-23.546276 0-47.099714 7.851828-62.794162 23.546276-19.624966 15.697517-31.391964 39.244816-31.391964 62.793138L468.695728 245.693004c0 23.546276 11.771091 47.099714 31.391964 62.793138C515.786233 324.184683 539.332509 335.959867 562.881854 335.959867L562.881854 335.959867zM755.183602 273.163659 562.887994 273.163659c-7.851828 0-15.697517-3.924379-23.546276-11.771091-3.923356-3.924379-7.851828-7.851828-7.851828-15.697517l0-204.074885c0-3.923356 3.924379-11.770068 7.851828-15.697517 7.851828-3.924379 15.69854-7.851828 23.546276-7.851828L755.183602 18.07082c11.771091 0 19.62599 3.924379 23.546276 7.851828 3.924379 3.924379 7.851828 11.771091 7.851828 15.697517L786.581706 245.695051c0 7.851828-3.924379 11.771091-7.851828 15.697517C774.805498 269.244396 766.958786 273.163659 755.183602 273.163659L755.183602 273.163659zM755.183602 799.039691l156.982334-102.036931c23.546276-15.697517 39.244816-35.319413 43.173289-58.868759 7.851828-19.623943 3.924379-47.097668-7.851828-66.714448L837.608869 398.743796c-15.69854-19.623943-35.320437-31.391964-58.869782-35.319413-23.546276-3.924379-51.013861 0-70.637804 11.771091L547.198663 481.15576c-19.623943 11.770068-35.319413 31.391964-43.173289 54.946426-3.923356 23.546276-3.923356 47.098691 11.771091 70.637804l0 0 109.87955 168.753425c11.770068 23.546276 35.319413 35.319413 58.868759 39.244816 23.549346 3.924379 47.098691 0 70.638827-15.697517L755.183602 799.039691 755.183602 799.039691zM880.764761 642.06145 719.862141 748.020714c-7.851828 3.924379-15.69854 3.924379-23.546276 3.924379-7.849782 0-15.697517-3.924379-19.62599-11.771091L570.732659 571.419554c-3.924379-3.924379-7.851828-11.771091-3.924379-19.623943 0-7.851828 7.851828-15.697517 15.697517-19.62599l0 0 160.90262-102.035908c7.851828-3.924379 15.697517-7.851828 23.545252-7.851828 7.851828 3.924379 11.771091 7.851828 15.69854 11.771091l109.877503 168.752402c3.924379 7.851828 3.924379 15.69854 3.924379 19.62599-3.924379 7.851828-7.851828 15.697517-15.697517 19.623943L880.764761 642.06145 880.764761 642.06145zM158.662603 755.873566l192.295608 0c23.546276 0 47.099714-7.851828 62.794162-23.545252 19.623943-19.62599 31.391964-39.244816 31.391964-66.714448l0-200.147436c0-27.473725-11.771091-51.013861-31.391964-66.714448-15.69854-15.697517-39.244816-23.546276-62.794162-23.546276L158.662603 375.205707c-27.472702 0-51.013861 7.851828-66.713424 23.546276-15.699564 15.694447-27.472702 39.244816-27.472702 66.714448L64.476477 665.613866c0 27.472702 11.771091 47.098691 27.472702 66.714448C107.646696 748.024807 131.193994 755.873566 158.662603 755.873566L158.662603 755.873566zM350.963327 693.083497 158.666696 693.083497c-7.851828 0-19.623943-3.924379-23.545252-7.851828-3.924379-7.851828-7.851828-11.771091-7.851828-19.62599l0-200.147436c0-7.851828 3.923356-15.697517 7.851828-19.623943 3.923356-3.924379 15.697517-7.851828 23.545252-7.851828l192.296631 0c7.851828 0 15.697517 3.923356 23.545252 7.851828 3.924379 3.923356 7.851828 11.770068 7.851828 19.623943L382.360408 665.606703c0 7.851828-3.923356 11.771091-7.851828 19.62599C366.656751 689.156048 358.811062 693.083497 350.963327 693.083497L350.963327 693.083497z"  horiz-adv-x="1024" />

    
    <glyph glyph-name="jilu" unicode="&#58963;" d="M901.242757 896 122.757243 896C54.960464 896 0 841.039536 0 773.242757l0-740.950442c0-67.796779 54.960464-122.757243 122.757243-122.757243l778.485514 0c67.796779 0 122.757243 54.960464 122.757243 122.757243L1024 773.242757C1024 841.039536 969.039536 896 901.242757 896zM236.544 649.22623l58.230921 0c29.118018 0 52.723213-23.605195 52.723213-52.72219 0-29.118018-23.605195-52.723213-52.723213-52.723213l-58.230921 0c-29.118018 0-52.723213 23.605195-52.723213 52.723213C183.820787 625.621035 207.425982 649.22623 236.544 649.22623zM822.001934 153.47622 236.542977 153.47622c-29.116995 0-52.72219 23.604172-52.72219 52.723213 0 29.116995 23.605195 52.72219 52.72219 52.72219l585.458957 0c29.118018 0 52.72219-23.605195 52.72219-52.72219C874.724124 177.081415 851.119952 153.47622 822.001934 153.47622zM822.001934 340.759784 236.542977 340.759784c-29.116995 0-52.72219 23.604172-52.72219 52.72219s23.605195 52.723213 52.72219 52.723213l585.458957 0c29.118018 0 52.72219-23.605195 52.72219-52.723213S851.119952 340.759784 822.001934 340.759784zM822.001934 543.780827 455.303544 543.780827c-29.118018 0-52.723213 23.605195-52.723213 52.72219 0 29.118018 23.605195 52.723213 52.723213 52.723213l366.69839 0c29.118018 0 52.72219-23.605195 52.72219-52.723213C874.724124 567.386022 851.119952 543.780827 822.001934 543.780827z"  horiz-adv-x="1026" />

    
    <glyph glyph-name="fuzhi" unicode="&#59286;" d="M819.2 793.58976 384 793.58976C327.424 793.58976 281.6 747.76576 281.6 691.18976L767.652654 691.18976C796.121467 691.18976 819.2 668.414107 819.2 640.216192L819.2 127.98976C875.7248 127.98976 921.6 173.86496 921.6 230.38976L921.6 691.18976C921.6 747.76576 875.7248 793.58976 819.2 793.58976L819.2 793.58976ZM665.6 486.38976 204.8 486.38976 204.8 537.599999 665.6 537.599999 665.6 486.38976ZM665.6 332.78976 204.8 332.78976 204.8 383.98976 665.6 383.98976 665.6 332.78976ZM153.523319 639.98976C125.28869 639.98976 102.4 617.078301 102.4 588.866441L102.4 25.513078C102.4-2.721551 125.311459-25.61024 153.523319-25.61024L716.876682-25.61024C745.111311-25.61024 768-2.698783 768 25.513078L768 588.866441C768 617.10107 745.088543 639.98976 716.876682 639.98976L153.523319 639.98976Z"  horiz-adv-x="1024" />

    
    <glyph glyph-name="money" unicode="&#59501;" d="M266.980587 831.967638M576.134693-62.42142200000001M922.364205 558.802188c-22.488177 53.169967-54.677297 100.916411-95.674013 141.913127-40.996716 40.99774-88.74316 73.186859-141.913127 95.677083-55.06206 23.288402-113.536846 35.097356-173.801395 35.097356-60.262502 0-118.737288-11.80793-173.798325-35.097356-53.169967-22.4892-100.916411-54.679343-141.913127-95.67606-40.996716-40.996716-73.185836-88.74316-95.67606-141.913127-23.288402-55.061037-35.097356-113.535823-35.097356-173.799348 0-60.264549 11.808954-118.740358 35.097356-173.801395 22.4892-53.169967 54.679343-100.916411 95.67606-141.912104s88.74316-73.184813 141.913127-95.674013c55.061037-23.289426 113.534799-35.097356 173.798325-35.097356 60.265572 0 118.740358 11.80793 173.801395 35.096333 53.169967 22.488177 100.917434 54.677297 141.913127 95.674013s73.184813 88.742137 95.674013 141.913127c23.289426 55.060013 35.097356 113.535823 35.097356 173.800371C957.461561 445.266365 945.653631 503.741151 922.364205 558.802188zM684.806741 589.507514L534.821775 425.013089l0-19.681248 125.202537-0.101307c11.619642-0.360204 20.942985-13.934361 20.942985-25.637913 0-11.710716-9.323343-24.249287-20.942985-24.619724l0-0.021489-0.274246 0c-0.135076 0-124.928291 0-124.928291 0l0-38.113039 125.202537 0 0-0.107447c11.619642-0.355087 20.942985-13.934361 20.942985-25.638937 0-11.70867-9.323343-24.248264-20.942985-24.614607l0-0.026606-0.274246 0c-0.135076 0-0.252757-0.042979-0.38067-0.042979-0.135076 0-0.252757 0.042979-0.382717 0.042979L534.821775 266.45077000000003l0-88.564082-0.118704 1.909489c0-15.461133-10.501168-28.02017-25.978674-28.02017-15.487739 0-25.989931 12.559037-25.989931 28.02017l0 86.654592L359.729991 266.45077000000003c-0.135076 0-0.252757-0.042979-0.38067-0.042979-11.930727 0-21.598924 12.753465-21.598924 24.683169 0 11.930727 9.66922 25.702382 21.598924 25.702382 0.118704 0 0.220011-0.036839 0.338714-0.036839l0 0.075725 123.047454 0 0 38.113039L359.687012 354.94526699999994l0 0.016373c-0.183172 0-0.355087-0.053212-0.548492-0.053212-11.935843 0-21.597901 12.748349-21.597901 24.679076 0 11.93482 9.662057 25.707498 21.597901 25.707498 0.183172 0 0.355087-0.053212 0.548492-0.053212l0 0.091074 123.047454 0 0 19.675108L335.934029 586.437595c0 0-14.619976 18.447141 1.658779 33.562397 14.326287 13.302981 38.373982-6.65149 38.373982-6.65149l134.972041-147.289578L648.667659 615.194546c0 0 17.010419 16.384156 32.244378 3.735068C696.261631 606.186382 684.806741 589.507514 684.806741 589.507514z"  horiz-adv-x="1024" />

    
    <glyph glyph-name="guanli" unicode="&#59560;" d="M374.208 766.805h-147.728c-59.602 0-109.516-49.447-109.516-109.050v-147.727c0-59.602 49.915-107.015 109.517-107.015h254.272v254.74c0 59.603-46.943 109.050-106.545 109.050zM427.384 456.382h-200.904c-29.801 0-55.26 23.844-55.26 53.647v147.727c0 29.802 25.46 54.793 55.26 54.793h147.727c29.801 0 53.177-24.99 53.177-54.792v-201.373zM788.562 766.805h-147.728c-59.602 0-109.384-49.447-109.384-109.050v-254.739h257.111c59.602 0 106.679 47.412 106.679 107.014v147.727c0.001 59.603-47.077 109.050-106.679 109.050zM840.985 510.028c0-29.802-22.622-53.647-52.422-53.647h-203.744v201.372c0 29.802 26.216 54.793 56.017 54.793h147.727c29.802 0 52.422-24.99 52.422-54.792v-147.727zM116.963 243.399v-147.727c0-59.603 49.915-107.15 109.517-107.15h147.727c59.602 0 106.546 47.546 106.546 107.15v256.642h-254.272c-59.602 0-109.516-49.314-109.516-108.916zM427.384 95.671c0-29.802-23.378-52.892-53.177-52.892h-147.727c-29.802 0-55.26 23.090-55.26 52.892v147.728c0 29.801 25.46 55.548 55.26 55.548h200.905l-0.002-203.275zM788.562 352.315h-257.111v-256.642c0-59.603 49.782-107.15 109.385-107.15h147.727c59.602 0 106.679 47.546 106.679 107.15v147.727c0.001 59.602-47.077 108.916-106.679 108.916zM840.985 95.671c0-29.802-22.622-52.892-52.422-52.892h-147.728c-29.802 0-56.017 23.090-56.017 52.892v203.274h203.744c29.802 0 52.422-25.747 52.422-55.549v-147.727z"  horiz-adv-x="1024" />

    
    <glyph glyph-name="shouye" unicode="&#58987;" d="M969.6 393.6l-118.4 112L528 806.4c-9.6 9.6-22.4 9.6-32 0L182.4 508.8l-9.6-9.6-118.4-112c-9.6-9.6-9.6-22.4 0-32s22.4-9.6 32 0l83.2 80v-393.6c0-48 41.6-89.6 92.8-89.6h83.2c38.4 0 70.4 28.8 70.4 67.2V236.8h198.4v-217.6c0-35.2 32-67.2 70.4-67.2H768c51.2 0 92.8 38.4 92.8 89.6V438.4l80-73.6c9.6-9.6 22.4-9.6 32 0 6.4 6.4 6.4 19.2-3.2 28.8z m-160-355.2c0-25.6-19.2-44.8-44.8-44.8h-83.2c-12.8 0-22.4 9.6-22.4 22.4V256c0 12.8-9.6 22.4-22.4 22.4H393.6c-12.8 0-22.4-9.6-22.4-22.4v-240c0-12.8-9.6-22.4-22.4-22.4h-83.2c-25.6 0-44.8 19.2-44.8 44.8V476.8l294.4 281.6 294.4-281.6v-438.4z"  horiz-adv-x="1024" />

    
    <glyph glyph-name="close1" unicode="&#58975;" d="M826.289 771.589l-314.289-314.278-314.289 314.278c-16.933 16.933-44.389 16.933-61.321 0-16.933-16.933-16.933-44.387 0-61.318l314.289-314.277-314.289-314.279c-16.933-16.933-16.933-44.387 0-61.318 16.933-16.933 44.389-16.933 61.321 0l314.289 314.277 314.289-314.277c16.933-16.933 44.388-16.933 61.323 0s16.933 44.387 0 61.318l-314.289 314.278 314.289 314.277c16.933 16.933 16.933 44.387 0 61.318-16.934 16.931-44.389 16.931-61.323 0.001z"  horiz-adv-x="1024" />

    
    <glyph glyph-name="word1" unicode="&#58995;" d="M821.477169 778.163661H205.708285c-48.386411 0-87.969779-39.591194-87.969779-87.969779v-615.776711c0-48.378584 39.583368-87.961952 87.969779-87.961952h615.768884c48.386411 0 87.969779 39.583368 87.969778 87.961952V690.193882c0 48.378584-39.585324 87.969779-87.969778 87.969779zM667.540329 162.38694999999996h-63.122069l-89.634902 330.126851-91.990728-330.126851h-63.141635l-105.556299 439.835197h63.137721l75.634952-294.53704 90.376479 294.53704h63.219901l88.644829-294.53704 74.865982 294.53704h63.125981L667.540329 162.38694999999996z"  horiz-adv-x="1024" />

    
    <glyph glyph-name="fujian1" unicode="&#58932;" d="M800 339.2L524.8 64c-38.4-38.4-83.2-64-140.8-64s-102.4 25.6-140.8 64c-76.8 76.8-76.8 204.8 0 281.6l384 384c25.6 25.6 57.6 38.4 89.6 38.4 32 0 64-12.8 89.6-38.4 44.8-44.8 44.8-128 0-172.8l-384-384c-6.4-6.4-19.2-12.8-32-12.8s-25.6 6.4-32 12.8c-19.2 19.2-19.2 44.8 0 64l384 384c12.8 12.8 12.8 32 0 44.8-6.4 6.4-12.8 12.8-25.6 12.8-6.4 0-19.2-6.4-25.6-12.8l-384-384c-19.2-19.2-32-51.2-32-76.8 0-32 12.8-57.6 32-76.8 19.2-19.2 51.2-32 76.8-32 32 0 57.6 12.8 76.8 32l384 384c38.4 38.4 57.6 83.2 57.6 134.4s-19.2 96-57.6 134.4c-32 32-76.8 51.2-128 51.2s-96-19.2-134.4-57.6l-384-384c-51.2-51.2-76.8-115.2-76.8-185.6 0-70.4 25.6-140.8 76.8-185.6C249.6-38.4 313.6-64 384-64s140.8 25.6 185.6 76.8L844.8 288c12.8 12.8 12.8 32 0 44.8-12.8 19.2-32 12.8-44.8 6.4z"  horiz-adv-x="1024" />

    
    <glyph glyph-name="jianhao" unicode="&#58986;" d="M912.208 347.591h-796.809c-20.1 0-36.411 16.31-36.411 36.409s16.311 36.409 36.41 36.409h796.809c20.134 0 36.409-16.31 36.409-36.409s-16.275-36.409-36.409-36.409z"  horiz-adv-x="1024" />

    
    <glyph glyph-name="yuan" unicode="&#58883;" d="M1108.33 728.509c-17.198 0-31.141-13.677-31.141-30.548v-54.269c-90.748 150.974-258.126 252.308-449.72 252.308-249.039 0-457.146-171.19-509.193-400.115-1.768-3.835-2.808-8.061-2.808-12.542 0-16.871 13.942-30.548 31.141-30.548 17.198 0 31.139 13.677 31.139 30.548h0.001c46.166 201.967 229.915 352.924 449.721 352.924s403.555-150.957 449.721-352.924c0-16.871 13.942-30.548 31.141-30.548 17.198 0 31.139 13.677 31.139 30.548v214.618c-0.002 16.871-13.944 30.548-31.142 30.548zM1108.33 315.20799999999997c-17.198 0-31.141-13.678-31.141-30.549v-0.002c-46.166-201.967-229.915-352.923-449.721-352.923-219.805 0-403.557 150.957-449.722 352.925 0 16.871-13.942 30.549-31.139 30.549-17.198 0-31.141-13.678-31.141-30.549v-214.618c0-16.871 13.942-30.548 31.141-30.548 17.198 0 31.139 13.677 31.139 30.548v54.267c90.749-150.973 258.126-252.308 449.722-252.308 249.04 0 457.143 171.189 509.191 400.115 1.769 3.835 2.808 8.061 2.808 12.544 0.001 16.871-13.94 30.549-31.138 30.549zM806.585 229.87c-0.024 0-0.046-0.007-0.071-0.007v0.419h-138.983v84.484h138.983v0.449c0.024 0 0.046-0.007 0.071-0.007 16.649 0 30.145 13.496 30.145 30.145 0 16.649-13.496 30.145-30.145 30.145-0.024 0-0.046-0.007-0.071-0.007v0.007h-118.351l129.77 239.028c4.74 6.447 7.628 14.333 7.628 22.949 0 21.492-17.422 38.913-38.913 38.913-16.81 0-30.998-10.718-36.439-25.647h-0.287c0 0-112.244-219.205-117.429-233.997h-1.558c-7.267 18.427-122.632 233.997-122.632 233.997h-0.294c-5.28 14.906-19.357 25.647-36.073 25.647-21.215 0-38.411-17.198-38.411-38.411 0-7.947 2.416-15.33 6.549-21.458l-0.191-0.102 129.152-240.92h-120.686c-16.649 0-30.145-13.496-30.145-30.145s13.496-30.145 30.145-30.145v-0.442h143.264v-84.484h-143.264v-0.412c-16.649 0-30.145-13.496-30.145-30.145s13.496-30.145 30.145-30.145v-0.418h143.264v-121.467h0.826c-0.515-2.491-0.796-5.069-0.796-7.714 0-20.909 16.95-37.858 37.858-37.858 20.909 0 37.858 16.95 37.858 37.858 0 2.644-0.281 5.222-0.796 7.714h0.967v121.469h138.983v0.425c0.024 0 0.046-0.007 0.071-0.007 16.649 0 30.145 13.496 30.145 30.145-0.001 16.649-13.497 30.145-30.146 30.145z"  horiz-adv-x="1332" />

    
    <glyph glyph-name="fanhuidingbu" unicode="&#58982;" d="M891.588 834.051H133.175v-47.4h758.413v47.4z m-354.714-94.685l-0.787-0.787v0.671h-47.412v-1.434l-1.55 1.55L84.92 344.567l33.512-33.514L488.676 674.48v-741.03h47.412V673.738l369.479-362.686 33.514 33.514-402.207 394.8z"  horiz-adv-x="1024" />

    
    <glyph glyph-name="hetongweiyue" unicode="&#58939;" d="M736 640c0-17.673-14.327-32-32-32H256c-17.674 0-32 14.327-32 32 0 17.673 14.326 32 32 32h448c17.673 0 32-14.327 32-32zM384 256c0-17.673-14.326-32-32-32h-96c-17.673 0-32 14.327-32 32 0 17.673 14.327 32 32 32h96c17.674 0 32-14.327 32-32z m96 192c0-17.673-14.326-32-32-32H256c-17.673 0-32 14.327-32 32 0 17.673 14.327 32 32 32h192c17.674 0 32-14.327 32-32zM832 512V704.827C832 739.661 803.661 768 768.827 768H191.174C156.34 768 128 739.661 128 704.827v-641.654C128 28.339 156.34 0 191.174 0H384c17.673 0 32-14.327 32-32 0-17.673-14.327-32-32-32H191.174C121.05-64 64-6.95 64 63.173V704.827C64 774.95 121.05 832 191.174 832h577.653C838.95 832 896 774.95 896 704.827V512c0-17.673-14.327-32-32-32-17.673 0-32 14.327-32 32zM704-64c-68.38 0-132.667 26.629-181.02 74.98C474.629 59.333 448 123.62 448 192s26.629 132.667 74.98 181.02C571.333 421.371 635.62 448 704 448s132.667-26.629 181.02-74.98C933.371 324.667 960 260.38 960 192s-26.629-132.667-74.98-181.02C836.667-37.371 772.38-64 704-64z m0 448c-105.869 0-192-86.131-192-192s86.131-192 192-192 192 86.131 192 192-86.131 192-192 192zM736 160c0-17.673-14.327-32-32-32-17.673 0-32 14.327-32 32V320c0 17.673 14.327 32 32 32 17.673 0 32-14.327 32-32v-160z m0-96c0-17.673-14.327-32-32-32-17.673 0-32 14.327-32 32 0 17.673 14.327 32 32 32 17.673 0 32-14.327 32-32z"  horiz-adv-x="1024" />

    
    <glyph glyph-name="kehu1" unicode="&#58960;" d="M814.9-16.2c-4.5 160.6-102.2 297.8-241 359.6-4.3 2.1-8.6 4-13 5.8 72.6 50.5 120.5 136.1 120.5 233.5 0 155.1-121.5 280.9-271.3 280.9S138.8 737.8 138.8 582.7c0-97.2 47.7-182.8 120.1-233.2C111.7 290.7 6.9 148.3 3.4-19.1c-0.3-1.6-0.4-3.2-0.4-4.8v-40.6C3-83 18-98 36.5-98S70-83 70-64.5v40.6c0 2.3-0.3 4.6-0.7 6.9C75 165.8 224.9 312.3 409.1 312.3c185.1 0 335.6-147.7 340.1-331.6-0.3-1.5-0.4-3.1-0.4-4.6v-20.7c-0.1-1.7-0.1-3.6-0.3-5.4h0.3v-14.5c0-18.5 15-33.5 33.5-33.5s33.5 14.9 33.5 33.4v40.7c0 2.6-0.3 5.2-0.9 7.7M203.5 582.6c0 118.1 92.5 213.9 206.6 213.9s206.6-95.8 206.6-213.9c0-118.1-92.5-213.9-206.6-213.9s-206.6 95.8-206.6 213.9M1021.4 52.6c-2.4 78.9-32 154.5-83.7 214.1-34.3 39.4-77.1 70.5-125.3 90.8 58.1 42.2 96.1 111.9 96.1 190.9 0 92.6-52.1 172.7-127.7 210.2-2.7 1.5-10.6 4.9-10.6 4.9-7.4 3.2-14.9 6-22.6 8.3l-11.8 4.4c-17.3 6.4-36.8-3.2-43.4-21.2-6.7-18.1 2-38 19.4-44.4l19.5-7.2v-0.3c63.4-20.9 109.2-82.3 109.2-154.8 0-72.2-45.4-133.3-108.3-154.4h-21.6c-22 0-40-18-40-40 0-22.1 18-40 40-40h20.7v-0.2c124.5-24.1 221.2-133.4 224.6-264.2-0.2-1.3-0.3-2.7-0.3-4.1v-17c-0.1-1.4-0.1-2.8-0.3-4.3l-0.3-6h0.6v-6.4c0-18.4 14.9-33.3 33.3-33.3 18.3 0 33.2 14.9 33.2 33.3v33.6c0 2.6-0.2 5-0.7 7.3"  horiz-adv-x="1024" />

    
    <glyph glyph-name="xuanze" unicode="&#59003;" d="M512 826.603467c-243.878426 0-441.670212-197.791785-441.670212-441.670212s197.684338-441.670212 441.670212-441.670211 441.670212 197.684338 441.670212 441.670211S755.878426 826.603467 512 826.603467z m0-827.758524c-213.260082 0-386.087289 172.827207-386.087289 386.088312S298.738895 771.020544 512 771.020544s386.087289-172.827207 386.087289-386.087289-172.827207-386.088312-386.087289-386.088312zM258.46668 384.933255c0-140.073222 113.460098-253.53332 253.53332-253.53332s253.53332 113.460098 253.53332 253.53332-113.461121 253.53332-253.53332 253.533321-253.53332-113.461121-253.53332-253.533321z"  horiz-adv-x="1024" />

    
    <glyph glyph-name="strategy" unicode="&#58992;" d="M431.3 84.3h160v-40h-160zM209.6 719.555l42.425-42.426-28.284-28.284-42.426 42.426zM492 831.6h40v-60h-40zM92.4 408.9h60v-40h-60zM511.3 738.3c-176.7 0-311-123.3-311-300 0-126.5 94.3-231.1 171-307.8v-147h66.1v-47h40v47h68v-47h40v47h65.9v147c82.2 82.2 170 181.3 170 307.8 0 176.7-133.3 300-310 300zM411.3 23.4v79.6h200v-79.6h-200zM781.3 438.3c0-111.9-81.7-202.9-158.3-279.5l-11.7-11.8v-4h-79.3v256.3c0 16.5 13.5 30 30 30s30-13.5 30-30c0-12.5-7.6-23.2-18.4-27.7v-41.4c33.2 5.5 58.4 34.3 58.4 69 0 38.7-31.3 70-70 70-19.6 0-37.3-8.1-50-21-12.7 13-30.4 21-50 21-38.7 0-70-31.3-70-70 0-34.7 25.3-63.5 58.4-69v41.4c-10.8 4.5-18.4 15.2-18.4 27.7 0 16.5 13.5 30 30 30s30-13.5 30-30v-256.2h-80.7v4l-11.7 11.7c-36.3 36.3-77.7 80-108.9 128.6-33.9 52.7-50.4 102.1-50.4 150.9 0 37.8 6.9 73.5 20.6 105.9 13.1 31 32 58.4 56.2 81.4 24.2 23 52.9 40.9 85.4 53.3 33.6 12.9 70.3 19.4 108.9 19.4 38.6 0 75.1-6.5 108.7-19.4 32.3-12.4 60.9-30.3 85-53.3 24.1-23 42.9-50.4 55.9-81.4 13.4-32.4 20.3-68 20.3-105.9zM871.6 408.9h60v-40h-60zM800.29 648.884l-28.284 28.284 42.426 42.426 28.284-28.284z"  horiz-adv-x="1024" />

    
    <glyph glyph-name="icon-test" unicode="&#58993;" d="M832 832h-640c-70.692 0-128-57.308-128-128v-640c0-70.692 57.308-128 128-128h640c70.692 0 128 57.308 128 128v640c0 70.692-57.308 128-128 128zM896 64c0-35.346-28.654-64-64-64h-640c-35.346 0-64 28.654-64 64v640c0 35.346 28.654 64 64 64h640c35.346 0 64-28.654 64-64v-640zM420.288 630.464l-103.424-103.424-39.808 39.808c-5.457 4.84-12.681 7.796-20.596 7.796-17.178 0-31.104-13.926-31.104-31.104 0-7.914 2.956-15.138 7.824-20.628l65.764-65.824c5.609-5.572 13.339-9.016 21.873-9.016 4.399 0 8.584 0.915 12.376 2.565 6.769 2.107 12.591 6.271 16.777 11.752l119.342 118.987c5.429 6.103 8.746 14.191 8.746 23.052 0 19.193-15.559 34.752-34.752 34.752-8.846 0-16.92-3.305-23.054-8.748zM768 544h-192c-17.673 0-32-14.327-32-32s14.327-32 32-32h192c17.673 0 32 14.327 32 32s-14.327 32-32 32zM768 288h-192c-17.673 0-32-14.327-32-32s14.327-32 32-32h192c17.673 0 32 14.327 32 32s-14.327 32-32 32zM352 352c-53.019 0-96-42.981-96-96s42.981-96 96-96c53.019 0 96 42.981 96 96 0 53.019-42.981 96-96 96zM352 224c-17.673 0-32 14.327-32 32s14.327 32 32 32c17.673 0 32-14.327 32-32 0-17.673-14.327-32-32-32z"  horiz-adv-x="1024" />

    
    <glyph glyph-name="icon-test1" unicode="&#58994;" d="M832 288c17.6 0 32-14.4 32-32v-320c0-17.673-14.327-32-32-32s-32 14.327-32 32v320c0 17.6 14.4 32 32 32zM256 672h384c17.673 0 32-14.327 32-32s-14.327-32-32-32h-384c-17.673 0-32 14.327-32 32s14.327 32 32 32zM256 480h384c17.673 0 32-14.327 32-32s-14.327-32-32-32h-384c-17.673 0-32 14.327-32 32s14.327 32 32 32zM256 288h224c17.673 0 32-14.327 32-32s-14.327-32-32-32h-224c-17.673 0-32 14.327-32 32s14.327 32 32 32zM672 128h320c17.673 0 32-14.327 32-32s-14.327-32-32-32h-320c-17.673 0-32 14.327-32 32s14.327 32 32 32zM736 864h-576c-70.692 0-128-57.308-128-128v-704c0-70.692 57.308-128 128-128h416v64h-416c-35.346 0-64 28.654-64 64v704c0 35.346 28.654 64 64 64h576c35.346 0 64-28.654 64-64v-384h64v384c0 70.692-57.308 128-128 128z"  horiz-adv-x="1024" />

    
    <glyph glyph-name="kehu" unicode="&#58882;" d="M463.2-69.6l17.6 256.8c0 16.8 13.6 29.6 31.2 29.6 16.8 0 31.2-12.8 31.2-29.6l17.6-257.6L512-112l-48.8 42.4zM947.2-128c-20 0-36.8 16.8-36.8 36.8 0 96.8-40.8 187.2-116 256-36.8 33.6-79.2 60-127.2 78.4-49.6 19.2-101.6 28.8-156 28.8s-107.2-9.6-156.8-28.8c-48-18.4-90.4-44.8-127.2-78.4-74.4-68.8-116-159.2-116-256 0-20-16.8-36.8-36.8-36.8s-36.8 16.8-36.8 36.8c0 59.2 12.8 116.8 37.6 171.2 24 52 58.4 99.2 102.4 139.2C220.8 259.2 272 290.4 328 312c4 1.6 7.2 2.4 11.2 4l15.2 5.6-13.6 8.8c-86.4 57.6-137.6 153.6-137.6 256.8C202.4 757.6 340.8 896 511.2 896s308.8-138.4 308.8-308.8c0-103.2-51.2-200-137.6-256.8l-13.6-8.8 15.2-5.6c4-1.6 7.2-2.4 11.2-4 56-21.6 107.2-52.8 150.4-92.8 44-40 78.4-87.2 102.4-139.2 24.8-54.4 37.6-112 37.6-171.2-1.6-20.8-17.6-36.8-38.4-36.8zM511.2 821.6c-62.4 0-121.6-24.8-166.4-68.8-44-44-68.8-103.2-68.8-166.4s24.8-121.6 68.8-166.4c44-44 103.2-68.8 166.4-68.8 62.4 0 121.6 24.8 166.4 68.8 44 44 68.8 103.2 68.8 166.4s-24.8 121.6-68.8 166.4c-44.8 44.8-104 68.8-166.4 68.8z"  horiz-adv-x="1024" />

    
    <glyph glyph-name="fujian" unicode="&#58941;" d="M829.8-52.2H193.1c-35.1 0-63.7 28.2-63.7 62.9V764.9c0 34.7 28.5 62.9 63.7 62.9h191v-62.9h-63.7V702h63.7v-62.9h-63.7v-62.9h63.7v-62.9h-63.7v-62.9h63.7v-62.9h-63.7v-62.9h63.7v-0.1h127.3v0.1h-63.7v62.9h63.7v62.9h-63.7v62.9h63.7v62.9h-63.7v62.9h63.7V702h-63.7V827.8H575v-314.3h318.3v-502.9c0.2-34.6-28.3-62.8-63.5-62.8zM320.4 73.5H511.5V262.1h-191v-188.6z m63.7 125.7h63.7v-62.9h-63.7v62.9zM638.8 827.8l254.7-251.4H638.8V827.8z"  horiz-adv-x="1024" />

    
    <glyph glyph-name="xiangyou" unicode="&#58924;" d="M284.444444-104.675556c-48.696889-40.049778-88.177778-21.390222-88.177777 40.96v832.853334c0 62.577778 39.367111 81.009778 88.177777 40.732444l467.285334-384.682666c48.696889-40.049778 48.924444-104.903111 0-145.066667L284.444444-104.675556z"  horiz-adv-x="1024" />

    
    <glyph glyph-name="xiangzuo" unicode="&#58925;" d="M739.669333-104.675556c48.696889-40.049778 88.177778-21.390222 88.177778 40.96v832.853334c0 62.577778-39.367111 81.009778-88.177778 40.732444L272.384 425.187556c-48.696889-40.049778-48.924444-104.903111 0-145.066667L739.555556-104.675556z"  horiz-adv-x="1024" />

    
    <glyph glyph-name="xiazai1" unicode="&#58931;" d="M852.437-64.294H173.564c-59.309 0-107.56 43.065-107.56 96V192.197c0 17.673 14.327 32 32 32 17.673 0 32-14.327 32-32v-160.491c0-17.346 19.948-32 43.56-32h678.873c23.611 0 43.559 14.654 43.559 32v160.41c0 17.673 14.327 32 32 32s32-14.327 32-32v-160.41c-0.001-52.935-48.252-96-107.559-96zM513.944 797.848h-4.709c-16.305 0-29.646-13.34-29.646-29.646V100.08c0-16.305 13.341-29.646 29.646-29.646h4.709c16.305 0 29.646 13.34 29.646 29.646V768.203c0 16.305-13.341 29.645-29.646 29.645zM196.365 447.085c-7.599 0-15.198-2.882-20.962-8.647l-3.33-3.33c-11.529-11.529-11.529-30.396 0-41.925l319.811-319.811c5.765-5.765 13.364-8.647 20.962-8.647s15.198 2.882 20.963 8.647l3.33 3.33c11.529 11.529 11.529 30.396 0 41.925L217.328 438.438c-5.765 5.765-13.364 8.647-20.963 8.647zM852.393 393.444h0.005-0.005m-24.292 53.901c-7.599 0-15.198-2.882-20.962-8.647l-319.812-319.81c-11.529-11.53-11.529-30.396 0-41.925l3.33-3.33c5.765-5.765 13.364-8.647 20.962-8.647s15.198 2.882 20.962 8.647l319.811 319.811c11.529 11.529 11.529 30.396 0 41.925l-3.33 3.33c-5.763 5.764-13.362 8.646-20.961 8.646z"  horiz-adv-x="1024" />

    
    <glyph glyph-name="strategy1" unicode="&#59021;" d="M96.2 426.1h50v-50h-50v50zM263.9 684.5l-35.4 35.4-35.4-35.4 35.4-35.4 35.4 35.4zM537 826.9h-50v-50h50v50zM877.8 426.1v-50h50v50h-50zM827 409.9c0-135.4-118.3-225.5-185-339.8v-128.9h-260v128.9c-69 112-185 203.2-185 339.8 0 180.2 138.3 326.2 315 326.2s315-146.1 315-326.2zM592 47.5h-160v-56.3h160v56.3zM756.3 518.1c-13.3 33-32.3 62.5-56.6 87.8-49.6 51.7-116.3 80.2-187.7 80.2s-138.1-28.5-187.7-80.2c-24.2-25.3-43.3-54.8-56.6-87.8-13.7-34.1-20.7-70.6-20.7-108.2 0-35.1 9.5-69 30-106.6 19.7-36.2 46.7-70.7 75.3-107.2 24.5-31.3 49.9-63.7 71.5-98.6h63.2v196.6h-55v50h160v-50h-55v-196.7h63.2c22.4 37.9 49.3 72.6 75.3 106.1 27.6 35.6 53.7 69.2 72.7 104.1 19.6 36.1 28.8 68.6 28.8 102.2 0 37.7-7 74.2-20.7 108.3zM760.1 684.5l35.4-35.4 35.4 35.4-35.4 35.4-35.4-35.4z"  horiz-adv-x="1024" />

    
    <glyph glyph-name="weixin" unicode="&#58927;" d="M690.665 605.417c11.584 0 23.024-0.851 34.404-2.122-30.91 143.967-184.816 250.915-360.507 250.915-196.401 0-357.302-133.871-357.302-303.862 0-98.124 53.525-178.701 142.989-241.196l-35.734-107.484 124.877 62.638c44.718-8.853 80.566-17.937 125.168-17.937 11.207 0 22.329 0.548 33.363 1.414-6.991 23.889-11.035 48.906-11.035 74.857 0.002 156.099 134.038 282.775 303.776 282.775zM498.538 702.286c26.896 0 44.718-17.693 44.718-44.583 0-26.779-17.822-44.715-44.718-44.715-26.779 0-53.643 17.937-53.643 44.715 0.001 26.892 26.865 44.583 53.643 44.583zM248.494 612.986c-26.78 0-53.817 17.937-53.817 44.715 0 26.892 27.038 44.583 53.817 44.583 26.778 0 44.601-17.693 44.601-44.583 0-26.778-17.823-44.715-44.601-44.715zM1016.739 326.944c0 142.841-142.93 259.279-303.484 259.279-169.999 0-303.89-116.439-303.89-259.279 0-143.099 133.891-259.276 303.89-259.276 35.588 0 71.495 8.985 107.228 17.937l97.985-53.669-26.866 89.285c71.727 53.801 125.136 125.148 125.136 205.723zM614.749 371.646c-17.794 0-35.761 17.692-35.761 35.745 0 17.807 17.968 35.732 35.761 35.732 27.011 0 44.718-17.925 44.718-35.732 0-18.053-17.708-35.745-44.718-35.745zM811.267 371.646c-17.68 0-35.501 17.692-35.501 35.745 0 17.807 17.822 35.732 35.501 35.732 26.779 0 44.716-17.925 44.716-35.732 0.001-18.053-17.937-35.745-44.716-35.745z"  horiz-adv-x="1024" />

    
    <glyph glyph-name="save_blue" unicode="&#59142;" d="M896 832h-768c-32 0-64-32-64-64v-768c0-32 32-64 64-64h768c32 0 64 32 64 64v768c0 32-32 64-64 64zM320 768h384v-288c0-19.2-12.8-32-32-32h-320c-19.2 0-32 12.8-32 32v288zM896 32c0-19.2-12.8-32-32-32h-704c-19.2 0-32 12.8-32 32v704c0 19.2 12.8 32 32 32h96v-320c0-32 32-64 64-64h384c32 0 64 32 64 64v320h96c19.2 0 32-12.8 32-32v-704zM608 512c19.2 0 32 12.8 32 32v128c0 19.2-12.8 32-32 32s-32-12.8-32-32v-128c0-19.2 12.8-32 32-32z"  horiz-adv-x="1024" />

    
    <glyph glyph-name="ren" unicode="&#58884;" d="M265.826 627.924c0-135.706 110.054-245.622 245.622-245.622s245.622 110.054 245.622 245.622c0.138 135.568-109.916 245.622-245.622 245.622s-245.622-109.916-245.622-245.622zM589.507 376.23299999999995l-77.921-77.921-78.059 77.921c-234.175-37.513-314.578-240.382-314.578-485.177h786.515c0 244.795-81.782 447.664-315.957 485.177M511.449-38.745000000000005l-84.127 84.127 84.127 252.517 84.127-252.656-84.127-83.988z"  horiz-adv-x="1024" />

    
    <glyph glyph-name="shangchuan" unicode="&#58944;" d="M852.4-63.6H173.6c-59.3 0-107.6 43.1-107.6 96V192.9c0 17.7 14.3 32 32 32s32-14.3 32-32v-160.5c0-17.3 19.9-32 43.6-32h678.9c23.6 0 43.6 14.7 43.6 32V192.9c0 17.7 14.3 32 32 32s32-14.3 32-32v-160.4c-0.1-53-48.4-96.1-107.7-96.1zM513.9 65.5c16.3 0 29.6 13.3 29.6 29.6V763.2c0 16.3-13.3 29.6-29.6 29.6h-4.7c-16.3 0-29.6-13.3-29.6-29.6v-668.1c0-16.3 13.3-29.6 29.6-29.6h4.7zM196.4 416.2c7.6 0 15.2 2.9 21 8.6l319.8 319.8c11.5 11.5 11.5 30.4 0 41.9l-3.3 3.3c-5.8 5.8-13.4 8.6-21 8.6s-15.2-2.9-21-8.6L172.1 470.1c-11.5-11.5-11.5-30.4 0-41.9l3.3-3.3c5.8-5.8 13.4-8.7 21-8.7zM828.1 416c7.6 0 15.2 2.9 21 8.6l3.3 3.3c11.5 11.5 11.5 30.4 0 41.9L532.6 789.7c-5.8 5.8-13.4 8.6-21 8.6s-15.2-2.9-21-8.6l-3.3-3.3c-11.5-11.5-11.5-30.4 0-41.9l319.8-319.8c5.8-5.9 13.4-8.7 21-8.7z"  horiz-adv-x="1024" />

    
    <glyph glyph-name="duanxin" unicode="&#59019;" d="M758.690909 407.272727c-32.581818 0-60.509091 27.927273-60.509091 60.509091 0 32.581818 25.6 60.509091 60.509091 60.509091 32.581818 0 60.509091-27.927273 60.509091-60.509091 0-32.581818-27.927273-60.509091-60.509091-60.509091z m-237.381818 0c-32.581818 0-60.509091 27.927273-60.509091 60.509091 0 32.581818 27.927273 60.509091 60.509091 60.509091 32.581818 0 60.509091-27.927273 60.509091-60.509091-2.327273-32.581818-27.927273-60.509091-60.509091-60.509091z m-237.381818 0c-32.581818 0-60.509091 27.927273-60.509091 60.509091 0 32.581818 25.6 60.509091 60.509091 60.509091 32.581818 0 60.509091-27.927273 60.509091-60.509091-2.327273-32.581818-27.927273-60.509091-60.509091-60.509091zM909.963636 837.818182H132.654545C48.872727 837.818182 9.309091 795.927273 9.309091 714.472727v-495.709091c0-83.781818 37.236364-121.018182 118.690909-121.018181h118.690909l-13.963636-125.672728c0-16.290909 9.309091-30.254545 20.945454-37.236363 6.981818-2.327273 11.636364-4.654545 18.618182-4.654546 6.981818 0 16.290909 2.327273 23.272727 6.981818l237.381819 160.581819h381.672727c81.454545 0 118.690909 39.563636 118.690909 121.018181V714.472727c0 83.781818-41.890909 123.345455-123.345455 123.345455z"  horiz-adv-x="1033" />

    
    <glyph glyph-name="zhankai" unicode="&#58962;" d="M910.211879-128H113.788121A113.819152 113.819152 0 0 0 0-14.211879V782.211879A113.726061 113.726061 0 0 0 113.788121 896h796.423758A113.788121 113.788121 0 0 0 1024 782.211879v-796.423758A113.757091 113.757091 0 0 0 910.211879-128z m56.878545 853.302303a113.788121 113.788121 0 0 1-113.788121 113.788121H170.697697a113.819152 113.819152 0 0 1-113.788121-113.788121v-682.697697a113.819152 113.819152 0 0 1 113.788121-113.819151h682.697697a113.819152 113.819152 0 0 1 113.819151 113.819151V725.302303h-0.124121zM768 355.607273h-227.607273v-227.607273a28.361697 28.361697 0 1 0-56.785454 0v227.607273H256a28.392727 28.392727 0 1 0 0 56.785454h227.607273V640a28.392727 28.392727 0 1 0 56.785454 0v-227.607273h227.607273a28.361697 28.361697 0 1 0 0-56.785454z"  horiz-adv-x="1024" />

    
    <glyph glyph-name="Shape" unicode="&#58935;" d="M1001.849855-63.23691c9.55521-11.147745 14.332815-23.35718 14.332815-36.628305 0-11.147745-4.777605-19.11042-8.49352-21.764645-3.18507-2.654225-10.6169-6.37014-20.17211-6.37014-6.37014 0-12.74028 1.06169-18.579575 3.18507-5.839295 2.12338-11.147745 4.777605-15.92535 9.024365l-5.839294 4.777605-273.916019 273.385174c-70.602385-49.89943-166.154484-90.24365-253.743909-90.24365-9.024365 0-17.517885 0.530845-27.073095 1.06169-9.024365 0.530845-18.04873 2.12338-27.073095 3.715915C304.850374 83.807154 246.457424 105.040954 196.027149 138.484189 140.288424 174.050804 95.697445 220.765163 62.25421 279.158113c-15.92535 27.073095-28.66563 56.26957-37.689995 86.527735-9.024365 30.258165-14.86366 61.57802-16.456195 93.428719-2.12338 31.8507 0 63.7014 5.30845 94.49041C21.379145 604.035251 39.427875 652.872991 65.970125 696.402281c26.54225 44.060135 61.57802 82.280975 102.453084 113.069984 35.03577 27.60394 74.3183 48.83774 117.84759 63.7014 42.998445 14.86366 87.589425 22.29549 133.242094 22.29549 19.11042 0 37.15915-1.06169 55.20788-3.715915 46.71436-6.37014 91.836185-20.702955 134.834629-42.4676 41.936755-21.764645 80.157595-50.430275 112.53914-85.466044 37.15915-38.751685 65.82478-84.404355 85.466044-137.488855 19.641265-53.0845 28.134785-106.699844 25.48056-160.846034-3.18507-90.774495-45.121825-183.141524-105.107309-255.867289l273.916018-272.854328z m-230.917574 530.844997c2.654225 48.306895-5.30845 97.144635-23.888025 142.266459-10.6169 27.60394-24.41887 54.14619-41.936754 78.034215-17.517885 24.41887-38.22084 46.183515-61.57802 65.82478-23.35718 19.11042-48.83774 35.03577-75.910835 47.776049-58.39295 26.54225-122.625194 37.15915-186.326594 29.72732-3.715915 0-7.43183-0.530845-10.6169-1.06169l-7.43183-1.06169c-50.96112-7.962675-99.268015-27.073095-141.735614-56.269569-42.4676-28.66563-78.034215-66.355625-103.514774-110.946605-29.196475-48.306895-45.65267-101.92224-48.306895-160.846034-2.654225-59.45464 7.962675-114.131674 32.91239-164.561949 20.702955-45.65267 51.491965-85.99689 90.243649-118.378435 38.22084-32.381545 83.342665-56.26957 132.180405-70.071539 50.96112-14.332815 102.453084-16.98704 153.945049-8.49352 27.073095 4.777605 53.615345 12.74028 79.095904 23.888025 24.949715 10.6169 48.83774 24.41887 71.13323 40.875064 21.764645 16.456195 41.936755 35.03577 59.45464 55.738725 18.04873 20.702955 32.91239 43.52929 44.59098 67.94816 22.826335 42.998445 35.566615 90.774495 37.689994 139.612234z"  horiz-adv-x="1024" />

    
    <glyph glyph-name="qiandai" unicode="&#59140;" d="M882.526208 295.50592c-28.860416 104.21248-90.65472 181.588992-187.275264 236.315648-11.102208 6.28736-22.839296 11.524096-34.29376 17.260544 0.068608 0.15872 0.123904 0.504832 0.335872 0.699392 1.924096 1.79712 3.8912 3.556352 5.82144 5.343232 19.887104 18.388992 37.745664 38.631424 47.071232 63.72352 4.524032 12.16 5.639168 17.452032 8.779776 28.74368 5.844992 35.662848-0.8704 57.337856-22.772736 75.358208-29.595648 24.357888-63.179776 27.240448-98.64704 12.93312-2.466816-0.987136-4.10112-1.709056-6.554624 0.540672-45.662208 41.780224-118.961152 42.16832-164.933632 0.91648-2.141184-1.928192-3.692544-2.409472-6.482944-1.175552-18.65216 8.308736-38.155264 10.0864-58.166272 6.080512-37.93408-7.581696-69.307392-38.807552-63.740928-81.451008 4.834304-37.000192 19.652608-67.989504 45.196288-95.58528 5.248-5.666816 10.817536-11.051008 16.462848-16.780288-1.405952-0.66048-2.801664-1.35168-4.219904-1.98144-130.496512-57.747456-218.642432-180.149248-228.9664-322.868224-2.85184-39.467008-0.467968-78.54592 9.776128-117.244928 16.128-60.95872 71.535616-106.628096 138.070016-106.478592 156.788736 0.352256 313.576448-0.037888 470.367232 0.196608 50.367488 0.070656 89.141248 21.94944 117.27872 61.790208 14.299136 20.248576 20.988928 43.245568 24.87296 67.332096 9.063424 56.029184 7.182336 111.579136-7.979008 166.331392z m-64.214016-186.836992c-24.042496-34.040832-27.984896-51.98336-104.128512-51.813376-133.9648 0.29696-267.927552-0.165888-401.892352-0.16896-100.133888-0.002048-131.475456 45.170688-120.43776 190.174208 11.789312 154.876928 135.056384 237.022208 238.790656 290.578432 1.1776 0.607232 2.404352 1.128448 3.605504 1.692672-4.82304 4.89472-136.764416 99.715072-47.26272 146.965504 15.420416 8.1408 33.76128 1.903616 49.697792-5.195776 2.383872-1.053696 3.710976-0.642048 5.53984 1.004544 39.279616 35.24608 101.909504 34.915328 140.923904-0.78336 2.096128-1.922048 3.49184-1.3056 5.600256-0.461824 30.304256 12.224512 84.286464 21.699584 84.286464-11.051008 0-84.491264-60.311552-111.007744-77.303808-126.72-1.64864-1.526784-3.330048-3.030016-4.972544-4.564992-0.182272-0.166912-0.228352-0.461824-0.28672-0.598016 9.787392-4.901888 19.815424-9.375744 29.300736-14.747648 82.553856-46.759936 179.383296-114.125824 202.187776-214.665216 43.396096-96.596992 8.568832-182.342656-3.648512-199.645184z m-190.660608 80.129024c-2.432-21.801984-23.758848-23.053312-23.758848-23.053312l-66.185216-0.038912-0.023552-18.330624c-0.387072-11.636736-8.71424-17.970176-8.71424-17.970176-9.587712-8.644608-21.772288-5.57056-21.772288-5.57056-19.408896 4.780032-19.929088 23.046144-19.929088 23.046144v18.82624l-66.456576 0.054272c-13.380608 0.328704-19.946496 12.126208-19.946496 12.126208-5.028864 8.503296-3.305472 17.093632-3.305472 17.093632 4.133888 20.978688 23.692288 21.133312 23.692288 21.133312l66.016256 0.028672V243.4048l-66.490368 0.05632c-10.113024 0.631808-16.088064 6.898688-18.295808 9.736192 2.987008-4.23424 1.227776-1.743872-0.036864 0.047104-0.630784 0.815104-0.943104 1.337344-0.943104 1.337344l0.943104-1.337344a0.739328 0.739328 0 0 0 0.036864-0.047104l-1.082368 1.534976c-6.078464 8.615936-3.726336 18.618368-3.726336 18.618368 5.095424 20.764672 23.898112 20.476928 23.898112 20.476928l65.586176 0.01536v19.602432l-78.093312 77.479936c-6.597632 7.58784-6.577152 15.83616-6.577152 15.83616-0.663552 17.671168 14.75584 24.1408 14.75584 24.1408 15.832064 6.687744 26.773504-3.757056 26.773504-3.757056l72.018944-71.148544 69.031936 68.089856c8.548352 6.9632 18.299904 5.315584 18.299904 5.315584 19.759104-2.528256 22.243328-20.932608 22.243328-20.932608 2.266112-12.08832-5.879808-20.739072-5.879808-20.739072l-82.026496-81.225728v-12.658688l65.567744-0.038912c0.684032 0.033792 2.427904-0.160768 2.427904-0.160768 14.2848-1.851392 19.523584-14.025728 19.523584-14.025728 6.016-12.131328-0.649216-23.237632-0.649216-23.237632-7.916544-13.659136-21.385216-12.96384-21.385216-12.96384l-65.485824-0.011264v-27.260928l66.463744-0.131072c5.129216 0 10.420224-2.935808 10.420224-2.935808 15.369216-8.91904 13.064192-24.282112 13.064192-24.282112z"  horiz-adv-x="1024" />

    
    <glyph glyph-name="rili" unicode="&#58885;" d="M311.946673 665.433666h13.565443c20.343545 0 33.902828 13.559283 33.902828 33.904368V862.089472C359.414944 882.439177 345.855661 896 325.512116 896h-13.565443c-20.345085 0-33.904368-13.560823-33.904368-33.910528v-169.5357c0-13.560823 13.559283-27.120106 33.904368-27.120106M752.740416 665.433666h13.560823c20.349705 0 33.908988 13.559283 33.908988 33.904368V862.089472C800.208687 882.439177 786.650945 896 766.301239 896h-13.560823c-20.343545 0-33.910528-13.560823-33.910528-33.910528v-169.5357c0-13.560823 20.343545-27.120106 33.910528-27.120106M942.619661 814.621201H854.46276v-61.032174h88.156901c40.685549 0 74.596077-33.907448 74.596077-74.596078v-67.811816H61.030634v67.811816c0 40.68863 33.908988 74.596077 74.594537 74.596078h88.163061V814.621201H142.409433C61.030634 814.621201 0 746.806305 0 672.210227v-657.799254c0-74.596077 61.030634-142.409433 142.409433-142.409433h806.99449c74.596077 0 142.409433 61.035254 142.409433 142.409433V672.210227c-6.784262 74.596077-67.814896 142.410973-149.193695 142.410974m0-874.806305H142.409433c-40.687089 0-74.596077 33.910528-74.596077 74.596077V543.369318h956.185104v-522.174083c0-47.469811-33.908988-81.380339-81.378799-81.380339M406.884755 814.621201h271.258044v-61.030634H406.884755z"  horiz-adv-x="1091" />

    
    <glyph glyph-name="youjian" unicode="&#58928;" d="M848.5 774.3h-673c-61.6 0-111.7-50.1-111.7-111.8v-0.9l422.1-267.5c19.8-12.6 55.5-12.3 75.2 0.5l399.1 261.9v6c0 61.6-50 111.8-111.7 111.8zM63.8 570v-464.5c0-61.5 50-111.8 111.7-111.8h673c61.6 0 111.7 50.1 111.7 111.8V563.8L608.8 324c-47.9-31.4-121.2-31.8-169.5-1.2L63.8 570z"  horiz-adv-x="1024" />

    
    <glyph glyph-name="beizhu" unicode="&#58886;" d="M1143.954243-128H26.331785a26.221705 26.221705 0 0 0-26.331419 26.331419v18.285708a26.441133 26.441133 0 0 0 26.331419 26.331419h1117.622458a26.697133 26.697133 0 0 0 26.331419-26.331419v-18.285708a26.221705 26.221705 0 0 0-26.331419-26.331419zM202.240293 60.708504a37.522272 37.522272 0 0 0-37.668557 37.302844 45.970269 45.970269 0 0 0 1.82857 12.068567l73.142831 217.234208a36.790844 36.790844 0 0 0 9.142854 14.262852L795.428653 885.02821a37.595415 37.595415 0 0 0 26.697133 10.971424 37.375987 37.375987 0 0 0 26.33142-10.971424h0.365714l145.919948-144.822806a37.375987 37.375987 0 0 0 10.971424-26.331419 36.205701 36.205701 0 0 0-10.60571-25.965705L448.000206 144.091331a36.900558 36.900558 0 0 0-14.994281-9.142853l-218.697064-72.411403a32.182846 32.182846 0 0 0-12.068568-1.828571z m106.057105 234.422773L261.851701 157.257041l138.971379 46.079984L914.651468 713.873985l-92.525682 91.794253L308.297398 295.131277z"  horiz-adv-x="1170" />

    
    <glyph glyph-name="tishi" unicode="&#58887;" d="M512 896a512 512 0 1 1 512-512A512 512 0 0 1 512 896z m0-930.88A418.88 418.88 0 1 0 930.88 384 418.848 418.848 0 0 0 512-34.88z m0 232.64a46.56 46.56 0 1 1 46.4-46.4A46.432 46.432 0 0 1 512 197.76z m0 465.6a46.496 46.496 0 0 1-46.4-46.72v-279.04a46.4 46.4 0 1 1 92.8 0V616.64A46.496 46.496 0 0 1 512 663.36z"  horiz-adv-x="1024" />

    
    <glyph glyph-name="jianyi" unicode="&#58888;" d="M512 896a512 512 0 1 1 512-512A512 512 0 0 1 512 896zM227.52 156.16l69.76 155.52L416 200.32l-188.48-44.16z m210.56 67.52l-117.12 110.08 282.88 265.28 117.12-109.76-282.88-265.6z m343.04 316.48l-33.92-30.08-118.72 111.68 31.68 31.68c33.6 31.36 63.68 10.24 97.28-21.44s57.28-60.48 23.68-91.84z"  horiz-adv-x="1024" />

    
    <glyph glyph-name="guanbi" unicode="&#58889;" d="M955.264 640A512.9856 512.9856 0 0 1 768 827.264a513.28 513.28 0 0 1-513.152 0A511.8464 511.8464 0 0 1 68.736 640a513.28 513.28 0 0 1 0-513.152 510.848 510.848 0 0 1 186.112-186.112 513.28 513.28 0 0 1 513.152 0 512 512 0 0 1 187.264 186.112 513.28 513.28 0 0 1 0 513.152zM759.68 197.9264l-62.848-61.6064L512 322.368 327.168 136.32l-62.848 61.6064L450.432 384 264.32 568.8832l61.568 62.8096L512 445.632l184.832 186.0736 62.848-62.8096L573.568 384l186.112-186.0864z"  horiz-adv-x="1024" />

    
    <glyph glyph-name="lashenanniu" unicode="&#58890;" d="M391.529111 896a62.042353 62.042353 0 0 1-60.235295-63.849412v-896.301176a60.235294 60.235294 0 1 1 120.470589 0V832.150588A62.223059 62.223059 0 0 1 391.529111 896z m240.941176-191.849412A62.102588 62.102588 0 0 1 572.234993 640v-512a60.235294 60.235294 0 1 1 120.470588 0v512a62.313412 62.313412 0 0 1-60.235294 64.150588z"  horiz-adv-x="1024" />

    
    <glyph glyph-name="wenti" unicode="&#58892;" d="M512 896a512 512 0 1 1 512-512A511.84 511.84 0 0 1 512 896z m256.96-528a193.312 193.312 0 0 0-199.68-45.504l-226.88-227.2a84.448 84.448 0 0 0-119.36 119.456l226.88 227.04a192.704 192.704 0 0 0 280.32 228.576l-63.68-63.584a48.352 48.352 0 0 1 68.48-68.288l63.36 63.616a192 192 0 0 0-29.44-234.272z"  horiz-adv-x="1024" />

    
    <glyph glyph-name="xiala" unicode="&#58893;" d="M1261.794787 772.080281L716.291586-79.567473a92.404164 92.404164 0 0 0-158.042983 0L12.745402 772.080281A82.590204 82.590204 0 0 0 91.766894 895.583225h1091.006401a82.207842 82.207842 0 0 0 79.021492-123.502944z"  horiz-adv-x="1274" />

    
    <glyph glyph-name="meiyouxiangguanjieguo" unicode="&#58894;" d="M940.169981 804.664972zM600.067882-128h-265.579774a7.551425 7.551425 0 0 0 0 15.10285h265.579774a7.551425 7.551425 0 0 0 0-15.10285z m-26.269999 921.945788a18.795369 18.795369 0 0 0-18.270609 14.590889l-14.910864 64.251107a18.798568 18.798568 0 1 0 36.605212 8.575347l14.910864-64.283105a18.856164 18.856164 0 0 0-14.04693-22.622277 18.040226 18.040226 0 0 0-4.287673-0.511961z m209.104075-165.71538a18.587384 18.587384 0 0 0-3.743715 0.383971l-64.443092 13.055006a18.846565 18.846565 0 0 0 7.423435 36.957185l64.475089-13.055005a18.878562 18.878562 0 0 0-3.711717-37.341157z m-102.744175 129.590131a18.728174 18.728174 0 0 0-14.494896 6.847479 18.932958 18.932958 0 0 0 2.527807 26.557977l55.259792 45.820511a18.833766 18.833766 0 0 0 23.934177-29.085785l-55.259792-45.820511a18.849764 18.849764 0 0 0-11.967088-4.319671z m181.490178-832.768579H418.577704l310.568348 112.951398a77.021334 77.021334 0 0 1 45.916503 98.488499l-20.126467 55.739755a13.157398 13.157398 0 1 1-24.734117-8.991315l20.126468-55.739755a50.514553 50.514553 0 0 0-30.141705-64.667075L370.677352-64.324849a50.332167 50.332167 0 0 0-64.47509 30.269695L113.096968 500.624126a50.655342 50.655342 0 0 0 30.173702 64.699073l349.477385 127.126319a50.332167 50.332167 0 0 0 64.47509-30.269695l78.873993-219.15131a13.154198 13.154198 0 1 1 24.734116 8.959317l-78.873993 219.183308a76.541371 76.541371 0 0 1-98.168524 46.076491L134.311352 590.121311a77.034133 77.034133 0 0 1-45.9485-98.4885l193.137291-534.679281a76.68216 76.68216 0 0 1 56.571692-49.052264 9.042511 9.042511 0 0 1 5.055615-1.503886h6.5595c1.3119-0.095993 2.591803-0.12799 3.903703-0.12799s2.6238 0.031998 3.903702 0.12799H861.647961a9.32729 9.32729 0 0 1 0 18.65458z m-91.25705 564.597002l-20.414445 11.135152c-8.159379 4.447661-19.838489-1.343898-26.110012-12.895018l-170.003053-314.472051a9.045711 9.045711 0 0 1-1.087917-4.351668l1.119914-34.781352a5.308396 5.308396 0 0 1-1.56788-0.351973l-52.827977-19.742496a5.676368 5.676368 0 0 1 1.983849-10.975164 5.295597 5.295597 0 0 1 1.951851 0.38397l50.844128 19.006553v-0.415968a4.022094 4.022094 0 0 1 6.527503-3.55173l39.996954 24.28615a8.677739 8.677739 0 0 1 3.039768 3.29575l170.003054 314.440053c6.239525 11.583118 4.703642 24.574129-3.455737 28.989792zM390.355853 73.360665L351.606804 58.865769a5.64757 5.64757 0 0 1-3.295749-7.263447 5.564376 5.564376 0 0 1 5.279598-3.67972 5.2508 5.2508 0 0 1 1.951851 0.351974l38.749049 14.494896a5.65077 5.65077 0 1 1-3.9357 10.591193z m80.985832 30.301692l-52.795979-19.774494a5.64757 5.64757 0 0 1 1.951851-10.943166 5.413988 5.413988 0 0 1 1.983849 0.351973l52.79598 19.742496a5.663569 5.663569 0 0 1-3.935701 10.623191z m-155.444162 87.417343a5.64757 5.64757 0 0 0-1.951851 10.943167l33.117478 12.415054a5.663569 5.663569 0 0 0 3.9357-10.623191l-33.117478-12.383057a5.301996 5.301996 0 0 0-1.983849-0.351973z m61.307331 22.910255a5.669968 5.669968 0 0 0-1.951851 10.975165l52.795979 19.742496a5.65077 5.65077 0 1 0 3.935701-10.591193L379.188703 214.373926a5.461984 5.461984 0 0 0-1.983849-0.383971z m80.985833 30.301693a5.653969 5.653969 0 0 0-1.983849 10.943166l52.827977 19.774494a5.65077 5.65077 0 0 0 3.9357-10.591193l-52.827977-19.774494a5.989944 5.989944 0 0 0-1.951851-0.351973z m80.953835 30.301692a5.64757 5.64757 0 0 0-1.951852 10.943167l52.79598 19.742496a5.621972 5.621972 0 0 0 7.263446-3.295749 5.685967 5.685967 0 0 0-3.327746-7.295444l-52.795979-19.742497a5.301996 5.301996 0 0 0-1.983849-0.351973z"  horiz-adv-x="1024" />

    
    <glyph glyph-name="excel1" unicode="&#58951;" d="M580 41.8h351.9c15.2 1.9 27.2 13.9 29.1 29.1 0.1 1.1 0.1 2.2 0 3.4V694.5c-0.2 16.9-13 30.9-29.8 32.7H580v-685.4zM744.8 634.2h143.5c2.5 0 4.5-2 4.5-4.5v-58.3c0-2.5-2-4.5-4.5-4.5H744.8c-2.5 0-4.5 2-4.5 4.5v58.3c0 2.5 2 4.5 4.5 4.5z m0-107.8h143.5c2.5 0 4.5-2 4.5-4.5v-58.3c0-2.5-2-4.5-4.5-4.5H744.8c-2.5 0-4.5 2-4.5 4.5v58.3c0 2.5 2 4.5 4.5 4.5z m0-108h143.5c2.5 0 4.5-2 4.5-4.5v-58.3c0-2.5-2-4.5-4.5-4.5H744.8c-2.5 0-4.5 2-4.5 4.5v58.3c0 2.5 2 4.5 4.5 4.5z m0-108.1h143.5c2.5 0 4.5-2 4.5-4.5v-58.3c0-2.5-2-4.5-4.5-4.5H744.8c-2.5 0-4.5 2-4.5 4.5v58.3c0 2.5 2 4.5 4.5 4.5z m0-108h143.5c2.5 0 4.5-2 4.5-4.5v-58.3c0-2.5-2-4.5-4.5-4.5H744.8c-2.5 0-4.5 2-4.5 4.5v58.3c0 2.5 2 4.5 4.5 4.5zM555.1 634.2h143.5c2.5 0 4.5-2 4.5-4.5v-58.3c0-2.5-2-4.5-4.5-4.5H555.1c-2.5 0-4.5 2-4.5 4.5v58.3c0.1 2.5 2.1 4.5 4.5 4.5z m0-107.8h143.5c2.5 0 4.5-2 4.5-4.5v-58.3c0-2.5-2-4.5-4.5-4.5H555.1c-2.5 0-4.5 2-4.5 4.5v58.3c0.1 2.5 2.1 4.5 4.5 4.5z m0-108h143.5c2.5 0 4.5-2 4.5-4.5v-58.3c0-2.5-2-4.5-4.5-4.5H555.1c-2.5 0-4.5 2-4.5 4.5v58.3c0.1 2.5 2.1 4.5 4.5 4.5z m0-108.1h143.5c2.5 0 4.5-2 4.5-4.5v-58.3c0-2.5-2-4.5-4.5-4.5H555.1c-2.5 0-4.5 2-4.5 4.5v58.3c0.1 2.5 2.1 4.5 4.5 4.5z m0-108h143.5c2.5 0 4.5-2 4.5-4.5v-58.3c0-2.5-2-4.5-4.5-4.5H555.1c-2.5 0-4.5 2-4.5 4.5v58.3c0.1 2.5 2.1 4.5 4.5 4.5zM555.6 831.7c-2 0.2-4 0.2-6.1 0-2.7 0.4-5.5 0.4-8.3 0L404.5 806.4 90.7 748.8c-3.3-0.6-6.5-1.8-9.4-3.4-8.3-4.1-14.4-11.6-16.6-20.6-0.4-2.7-0.5-5.5-0.2-8.3v-659.7c-0.1-1-0.1-1.9 0-2.9 0.5-6 2.6-11.7 6.1-16.6l2.9-3.4c0.5-0.6 1-1.1 1.6-1.6 1.5-1.6 3.2-2.9 5.2-4l4-2.2c2.3-1.1 4.7-1.8 7.2-2.2l242.1-46.6 207.3-40.8h7.4c16.6 0.7 30.2 13.5 31.8 30 0.1 1.1 0.1 2.2 0 3.4V799.2c0.1 15.2-9.9 28.5-24.5 32.5z m-128-620.2l-69 4c-5.6 0-6.7 3.8-8.1 7.6-14.1 36.3-27.8 72.9-41.7 109.2 0 2.5-2.2 4.9-3.8 9-7.8-18.6-15.2-36.1-22.4-53.1l-25.3-60.3c-1.1-4-5.1-6.6-9.2-5.8-17.7 1.3-35.4 2.5-53.1 2.9-7.4 0-8.1 1.8-4.9 8.3 24 47.3 47.5 95 71.5 142.1 3.6 6.1 3.6 13.6 0 19.7-22.4 47.1-43.5 91.9-65.9 139-4.5 9-1.8 10.5 20.2 11.7l35.4 2.5c8.3 0 9.9 0 11.7-6.1 13.2-35 26.7-70.2 40.1-105.1 0-2.2 2-4.5 3.1-7.6 15.2 35 32.7 76 46.6 110.3 6.3 15.5 8.1 16.1 22.4 16.4s33.4 0 44.8 1.8c2.2 0 4.5 0 5.8-1.6 1.3-1.6 0-3.8 0-5.8-24.9-50.7-49.5-101.8-74.9-152.4-3.6-6.4-3.6-14.2 0-20.6 23.8-47.7 69.5-142.1 79.1-162.1 0.8-1.1 0.5-2.7-0.7-3.4-0.4-0.6-1.1-0.7-1.7-0.6z"  horiz-adv-x="1024" />

    
    <glyph glyph-name="xiangxia" unicode="&#58918;" d="M743.936 466.944c0 8.704-7.168 15.872-15.872 16.384H296.96c-9.216 0-16.896-7.68-16.896-16.896 0-4.608 2.048-9.216 5.12-11.776l211.968-215.04s8.704-8.192 14.336-8.192c4.608 0 8.704 2.048 11.776 5.12L737.28 453.632c1.024 1.024 2.56 2.048 3.072 3.072l1.024 1.024s2.56 5.632 2.56 9.216z"  horiz-adv-x="1024" />

    
    <glyph glyph-name="xiangshang" unicode="&#58920;" d="M743.936 248.32c0-8.704-7.168-15.872-15.872-16.384H296.96c-9.216 0-16.896 7.68-16.896 16.896 0 4.608 2.048 9.216 5.12 11.776l211.968 215.04s8.704 8.192 14.336 8.192c4.608 0 8.704-2.048 11.776-5.12l213.504-217.088c1.024-1.024 2.56-2.048 3.072-3.072l1.024-1.024c0.512 0 3.072-6.144 3.072-9.216z"  horiz-adv-x="1024" />

    
    <glyph glyph-name="duigou" unicode="&#58897;" d="M511.999803 895.999606a511.999803 511.999803 0 1 1 511.999803-511.999803A511.487803 511.487803 0 0 1 511.999803 895.999606z m291.446042-373.36601l-334.769102-334.769102a45.686136 45.686136 0 0 0-63.015361 0l-189.046081 189.046081a44.307675 44.307675 0 0 0 31.50768 74.436894 45.371059 45.371059 0 0 0 31.507681-12.603072l157.538401-158.326093 303.261421 303.655268a45.725521 45.725521 0 0 0 31.507681 12.996918 43.795675 43.795675 0 0 0 43.32306-43.716906 42.180907 42.180907 0 0 0-11.81538-30.719988z"  horiz-adv-x="1024" />

    
    <glyph glyph-name="cha" unicode="&#58899;" d="M1010.632151-42.288159L582.072948 384.032302 1010.632151 810.352763a50.979356 50.979356 0 0 1 0 71.000107 49.604129 49.604129 0 0 1-70.360466 0L511.712482 455.032409 86.351481 881.35287a49.604129 49.604129 0 0 1-70.360466 0 50.979356 50.979356 0 0 1 0-71.000107l425.361-426.320461L15.991015-42.288159a50.979356 50.979356 0 0 1 0-71.000107 49.604129 49.604129 0 0 1 70.360466 0L511.712482 313.032195l428.559203-426.320461a49.604129 49.604129 0 0 1 70.360466 0 50.979356 50.979356 0 0 1 0 71.000107z"  horiz-adv-x="1025" />

    
    <glyph glyph-name="gou" unicode="&#58900;" d="M617.736-128L22.536 301.76a54.528 54.528 0 1 0 64 88.32l502.4-362.88L1148.936 871.04a52.768 52.768 0 0 0 73.6 15.68 52.16 52.16 0 0 0 16-75.52L617.736-128z"  horiz-adv-x="1248" />

    
    <glyph glyph-name="haoping" unicode="&#58901;" d="M849.408 581.12h-146.773333a457.386667 457.386667 0 0 1 6.144 73.216V733.013333a162.986667 162.986667 0 0 1-325.973334 0v-78.677333c0-82.773333-67.242667-140.629333-163.328-140.629333H129.365333A129.501867 129.501867 0 0 1 0 384.341333V1.706667a129.399467 129.399467 0 0 1 129.365333-129.365334h107.008V435.370667c131.413333 6.997333 225.109333 96.768 225.109334 218.794666V733.013333a84.565333 84.565333 0 0 0 169.130666 0v-78.848a370.346667 370.346667 0 0 0-14.165333-101.546666l-14.677333-50.346667h248.32a95.812267 95.812267 0 0 0 95.744-95.744c0-13.482667-4.096-56.661333-41.472-163.157333l-1.536-4.437334c-95.232-288.256-107.690667-288.256-188.245334-288.256h-337.92a39.338667 39.338667 0 0 1 0-78.677333h337.749334c138.581333 0 166.741333 51.712 262.485333 341.845333l1.194667 3.413334C998.912 276.821333 1024 357.888 1024 406.528a175.035733 175.035733 0 0 1-174.592 174.592zM157.354667 435.029333v-484.181333H129.024a50.807467 50.807467 0 0 0-50.688 50.688V384.341333a50.909867 50.909867 0 0 0 50.688 50.688h28.330667z"  horiz-adv-x="1024" />

    
    <glyph glyph-name="chaping" unicode="&#58903;" d="M849.507874 186.939088h-146.931755a457.348554 457.348554 0 0 0 6.143488-73.209899v-78.670777a163.058412 163.058412 0 0 0-326.116824 0v78.670777c0 82.766436-67.066411 140.617615-163.143738 140.617615H129.525206A129.525206 129.525206 0 0 0 0 383.701358V766.304141A129.422815 129.422815 0 0 0 129.525206 895.658695h106.828431v-562.982418c131.402383-6.99675 225.090576-96.759937 225.090576-218.776435v-78.84143a84.558287 84.558287 0 0 1 169.116574 0v78.84143a370.315807 370.315807 0 0 1-14.164153 101.538205l-14.676111 50.342471h248.299309a95.804283 95.804283 0 0 1 95.736022 95.736022c0 13.481543-4.095659 56.656612-41.468545 163.143738l-1.535872 4.436964C807.698025 817.329223 795.069744 817.329223 714.52179 817.329223H376.8006a39.335389 39.335389 0 1 0 0 78.670777h337.550537c138.569786 0 166.727439-51.707691 262.463462-341.816849l1.194567-3.413049C998.828764 491.383051 1023.914674 410.152487 1023.914674 361.51654a174.867561 174.867561 0 0 0-174.4068-174.577452zM157.341555 333.017582V817.15857H129.183901A50.683776 50.683776 0 0 1 78.500125 766.474794v-382.773436a50.803233 50.803233 0 0 1 50.683776-50.683776h28.157654z"  horiz-adv-x="1024" />

    
    <glyph glyph-name="shubiao" unicode="&#58904;" d="M499.580735 430.738228l71.673249-393.588524a27.901372 27.901372 0 0 1 44.027852-18.635045l97.270837 69.21588L852.82746-115.616706a28.321172 28.321172 0 0 1 39.932238-7.064934l12.286843 9.317522 14.334649 10.034255a28.996948 28.996948 0 0 1 7.167325 40.54658L786.273729 140.563962l96.246933 68.499147a29.119817 29.119817 0 0 1-2.047807 49.04498L541.560781 461.148163a28.290455 28.290455 0 0 1-41.980046-30.409935z m-3.07171-266.522094c-3.071711 0-6.143421-0.204781-9.215132-0.204781C309.134675 164.011353 163.740372 311.863026 163.740372 493.605906S309.134675 823.302848 487.293893 823.302848c179.183121 0 324.577425-147.954063 324.577425-329.696942a337.181677 337.181677 0 0 0-22.525878-120.718229l62.458116-37.270089a405.62963 405.62963 0 0 1 31.74101 157.988318C883.544566 715.485804 705.385349 896 487.293893 896S92.067123 715.485804 92.067123 493.605906s177.135314-402.291704 395.22677-402.291705q10.750987 0 21.501974 0.614343zM552.82372 514.288757l161.776761-96.861275a254.88031 254.88031 0 0 1 10.239035 104.950113 239.194108 239.194108 0 1 1-244.712948-271.744001l-33.788817 187.57913A71.673248 71.673248 0 0 0 552.82372 514.288757z"  horiz-adv-x="1024" />

    
    <glyph glyph-name="tuichu1" unicode="&#58906;" d="M955.260994 640.004059A517.345854 517.345854 0 0 1 768.018249 827.246805a513.776539 513.776539 0 0 1-513.454715 0A520.768885 520.768885 0 0 1 68.783623 640.004059 502.483461 502.483461 0 0 1 0.030427 384.008119a494.935237 494.935237 0 0 1 68.753196-257.195465 513.206033 513.206033 0 0 1 185.779911-186.072478 513.776539 513.776539 0 0 1 513.454715 0 509.958542 509.958542 0 0 1 187.242745 186.072478A494.935237 494.935237 0 0 1 1024.01419 384.008119a502.483461 502.483461 0 0 1-68.753196 255.99594zM759.241246 197.935641l-62.90186-61.629194L512.022309 322.378925l-184.317078-186.072478-62.901859 61.629194L450.583283 384.008119 264.803372 568.895701l61.439025 62.799462L512.022309 445.622685l184.317077 186.072478 62.90186-62.799462L573.461334 384.008119l185.779912-186.087107z"  horiz-adv-x="1024" />

    
    </font>
</defs>
</svg>
